<svg width="120" height="120" viewBox="0 0 120 120" fill="none" xmlns="http://www.w3.org/2000/svg">
<rect x="5.85913" y="5.09436" width="109" height="109" rx="54.5" fill="#128894"/>
<rect x="5.85913" y="5.09436" width="109" height="109" rx="54.5" stroke="white" stroke-width="10"/>
<path d="M85.8589 34.5891H66.3744C65.901 34.5891 65.5172 34.9695 65.5172 35.4387C65.5172 35.9079 65.901 36.2883 66.3744 36.2883H85.8589C86.0164 36.2883 86.1446 36.4154 86.1446 36.5715V39.571H62.48C61.9396 38.5028 60.8249 37.7677 59.5396 37.7677C58.97 37.7677 58.4338 37.9122 57.9662 38.1658V37.0988C57.9662 36.8192 57.9304 36.5476 57.8632 36.2883H62.3743C62.8477 36.2883 63.2315 35.9079 63.2315 35.4387C63.2315 34.9695 62.8477 34.5891 62.3743 34.5891H56.7732C56.204 34.1216 55.4738 33.8401 54.6784 33.8401C54.1088 33.8401 53.5726 33.9846 53.105 34.2383V33.8531C53.1049 32.0563 51.6299 30.5944 49.817 30.5944C48.0041 30.5944 46.5292 32.0563 46.5292 33.8531V34.2384C46.0615 33.9846 45.5253 33.8402 44.9557 33.8402C43.1428 33.8402 41.6679 35.3021 41.6679 37.099V52.7848C41.6679 52.9353 41.6065 53.0746 41.4949 53.177C41.4306 53.2363 41.2929 53.333 41.0845 53.3179C40.9599 53.3085 40.8267 53.242 40.7189 53.1351L38.6333 51.0679C37.8165 50.2582 36.7309 49.8126 35.5759 49.8126H35.5705C34.4135 49.814 33.3268 50.2624 32.5106 51.0755C31.6391 51.9435 31.6424 53.3559 32.5181 54.2239C32.5234 54.2291 32.5287 54.2343 32.5342 54.2394L42.9989 64.0814C43.8395 64.872 44.3216 65.9839 44.3216 67.1325V86.6118C44.3216 87.7049 45.2189 88.5942 46.3217 88.5942H56.3789C57.4817 88.5942 58.379 87.7049 58.379 86.6118V78.4826H61.3415C61.675 79.3564 62.5256 79.9806 63.5227 79.9806C64.5198 79.9806 65.3702 79.3564 65.7037 78.4826H76.4321C76.9055 78.4826 77.2893 78.1022 77.2893 77.6329C77.2893 77.1637 76.9055 76.7833 76.4321 76.7833H65.9595C66.0697 76.3175 66.2666 75.8735 66.5453 75.471C66.9637 74.8666 67.1848 74.159 67.1848 73.4244V57.1541H67.38C68.1679 57.1541 68.8087 56.519 68.8087 55.7381V53.7982C68.8087 53.0173 68.1679 52.3822 67.38 52.3822H67.1848V46.2082C67.1848 44.2068 65.542 42.5785 63.5227 42.5785C63.285 42.5785 63.0527 42.6018 62.8274 42.645V41.2702H86.1447V76.5003C86.1447 76.6564 86.0165 76.7835 85.859 76.7835H80.4324C79.959 76.7835 79.5752 77.1639 79.5752 77.6331C79.5752 78.1023 79.959 78.4827 80.4324 78.4827H85.859C86.9618 78.4827 87.8591 77.5933 87.8591 76.5003V36.5715C87.859 35.4784 86.9617 34.5891 85.8589 34.5891ZM67.0942 54.0814V55.4549H59.9508V54.0814H67.0942ZM59.8604 73.4243C59.8604 74.1588 60.0816 74.8665 60.4999 75.4709C60.7785 75.8734 60.9755 76.3174 61.0856 76.7832H58.379V68.0095C58.379 66.7891 58.9158 65.644 59.8604 64.8232V73.4243ZM63.5226 78.2814C63.1812 78.2814 62.9035 78.0061 62.9035 77.6677C62.9035 76.5373 62.5612 75.4452 61.9136 74.5097C61.692 74.1894 61.5748 73.8142 61.5748 73.4243V67.4673H65.4703V73.4243C65.4703 73.8141 65.3532 74.1894 65.1316 74.5096C64.484 75.4452 64.1417 76.5372 64.1417 77.6677C64.1416 78.0061 63.864 78.2814 63.5226 78.2814ZM65.4703 65.7681H61.5748V57.1541H65.4703V65.7681ZM65.4703 46.2082V52.3822H61.5748V46.2082C61.5748 45.1437 62.4486 44.2777 63.5226 44.2777C64.5966 44.2777 65.4703 45.1438 65.4703 46.2082ZM59.8604 46.2082V52.3822H59.6652C58.8774 52.3822 58.2366 53.0173 58.2366 53.7982V55.7381C58.2366 56.519 58.8774 57.1541 59.6652 57.1541H59.8604V62.5153C59.6164 62.8008 59.3458 63.0595 59.0507 63.2838C57.5342 64.4364 56.6646 66.1589 56.6646 68.0095V86.6118C56.6646 86.7679 56.5364 86.895 56.3789 86.895H46.3217C46.1642 86.895 46.036 86.7679 46.036 86.6118V67.1324C46.036 65.5199 45.3592 63.9586 44.179 62.8488L33.7245 53.0163C33.525 52.8121 33.5249 52.474 33.7257 52.274C34.2184 51.7832 34.8742 51.5126 35.5726 51.5117H35.5759C36.2729 51.5117 36.9282 51.7807 37.4211 52.2693L39.5067 54.3366C39.9058 54.7323 40.4205 54.9721 40.9556 55.0122C41.5815 55.0591 42.2025 54.8442 42.6607 54.4229C43.1193 54.0014 43.3823 53.4043 43.3823 52.7846V37.0987C43.3823 36.2388 44.0881 35.5392 44.9557 35.5392C45.8233 35.5392 46.5292 36.2388 46.5292 37.0987V49.1823C46.5292 49.6515 46.913 50.0319 47.3864 50.0319C47.8598 50.0319 48.2436 49.6515 48.2436 49.1823V33.8531C48.2436 32.9932 48.9494 32.2936 49.817 32.2936C50.6846 32.2936 51.3905 32.9932 51.3905 33.8531V49.1824C51.3905 49.6516 51.7743 50.032 52.2477 50.032C52.7211 50.032 53.1049 49.6516 53.1049 49.1824V37.0987C53.1049 36.2388 53.8107 35.5392 54.6783 35.5392C55.5459 35.5392 56.2518 36.2388 56.2518 37.0987V49.0975C56.2518 49.5667 56.6356 49.9471 57.109 49.9471C57.5824 49.9471 57.9662 49.5667 57.9662 49.0975V41.0262C57.9662 40.1663 58.672 39.4666 59.5396 39.4666C60.4072 39.4666 61.1131 40.1663 61.1131 41.0262V43.4783C60.3461 44.1442 59.8604 45.1208 59.8604 46.2082Z" fill="white"/>
<path d="M45.5644 54.313C45.091 54.313 44.7072 54.6934 44.7072 55.1626C44.7072 55.6318 45.091 56.0122 45.5644 56.0122C48.0087 56.0122 49.9971 57.9831 49.9971 60.4057C49.9971 60.8749 50.3809 61.2553 50.8543 61.2553C51.3277 61.2553 51.7115 60.8749 51.7115 60.4057C51.7115 57.0463 48.954 54.313 45.5644 54.313Z" fill="white"/>
<path d="M49.6716 70.4168H49.217C48.7436 70.4168 48.3598 70.7972 48.3598 71.2664C48.3598 71.7357 48.7436 72.1161 49.217 72.1161H49.6716C50.145 72.1161 50.5288 71.7357 50.5288 71.2664C50.5288 70.7972 50.145 70.4168 49.6716 70.4168Z" fill="white"/>
<path d="M53.8771 70.4168H53.4225C52.9491 70.4168 52.5653 70.7972 52.5653 71.2664C52.5653 71.7357 52.9491 72.1161 53.4225 72.1161H53.8771C54.3505 72.1161 54.7343 71.7357 54.7343 71.2664C54.7343 70.7972 54.3505 70.4168 53.8771 70.4168Z" fill="white"/>
<path d="M49.6716 74.2866H49.217C48.7436 74.2866 48.3598 74.667 48.3598 75.1362C48.3598 75.6054 48.7436 75.9858 49.217 75.9858H49.6716C50.145 75.9858 50.5288 75.6054 50.5288 75.1362C50.5288 74.667 50.145 74.2866 49.6716 74.2866Z" fill="white"/>
<path d="M53.8771 74.2866H53.4225C52.9491 74.2866 52.5653 74.667 52.5653 75.1362C52.5653 75.6054 52.9491 75.9858 53.4225 75.9858H53.8771C54.3505 75.9858 54.7343 75.6054 54.7343 75.1362C54.7343 74.667 54.3505 74.2866 53.8771 74.2866Z" fill="white"/>
<path d="M49.6716 78.1565H49.217C48.7436 78.1565 48.3598 78.5369 48.3598 79.0061C48.3598 79.4754 48.7436 79.8557 49.217 79.8557H49.6716C50.145 79.8557 50.5288 79.4754 50.5288 79.0061C50.5288 78.5369 50.145 78.1565 49.6716 78.1565Z" fill="white"/>
<path d="M53.8771 78.1565H53.4225C52.9491 78.1565 52.5653 78.5369 52.5653 79.0061C52.5653 79.4754 52.9491 79.8557 53.4225 79.8557H53.8771C54.3505 79.8557 54.7343 79.4754 54.7343 79.0061C54.7343 78.5369 54.3505 78.1565 53.8771 78.1565Z" fill="white"/>
<path d="M49.6716 82.0264H49.217C48.7436 82.0264 48.3598 82.4068 48.3598 82.876C48.3598 83.3453 48.7436 83.7257 49.217 83.7257H49.6716C50.145 83.7257 50.5288 83.3453 50.5288 82.876C50.5288 82.4068 50.145 82.0264 49.6716 82.0264Z" fill="white"/>
<path d="M53.8771 82.0264H53.4225C52.9491 82.0264 52.5653 82.4068 52.5653 82.876C52.5653 83.3453 52.9491 83.7257 53.4225 83.7257H53.8771C54.3505 83.7257 54.7343 83.3453 54.7343 82.876C54.7343 82.4068 54.3505 82.0264 53.8771 82.0264Z" fill="white"/>
<path d="M64.2649 81.2234C64.1118 80.9606 63.8289 80.7986 63.5226 80.7986C63.2164 80.7986 62.9334 80.9605 62.7802 81.2234L61.0046 84.2717C60.4791 85.1738 60.4791 86.2513 61.0046 87.1534C61.5302 88.0557 62.4714 88.5944 63.5226 88.5944C64.5737 88.5944 65.515 88.0557 66.0405 87.1534C66.5662 86.2513 66.5662 85.174 66.0405 84.2717L64.2649 81.2234ZM64.5558 86.3037C64.3401 86.674 63.9538 86.895 63.5225 86.895C63.0911 86.895 62.7048 86.674 62.4891 86.3037C62.2735 85.9334 62.2735 85.4914 62.4891 85.1212L63.5225 83.3473L64.5558 85.1212C64.7714 85.4915 64.7714 85.9335 64.5558 86.3037Z" fill="white"/>
<path d="M74.4462 44.4502C74.1114 44.1184 73.5686 44.1184 73.234 44.4502L71.888 45.7843L71.2345 45.1368C70.8998 44.8049 70.357 44.805 70.0224 45.1368C69.6876 45.4686 69.6876 46.0066 70.0224 46.3383L71.2819 47.5866C71.4492 47.7526 71.6686 47.8355 71.888 47.8355C72.1073 47.8355 72.3267 47.7526 72.494 47.5866L74.4463 45.6517C74.7809 45.32 74.7809 44.782 74.4462 44.4502Z" fill="white"/>
<path d="M76.7999 46.8681H83.2233C83.6967 46.8681 84.0805 46.4877 84.0805 46.0185C84.0805 45.5493 83.6967 45.1689 83.2233 45.1689H76.7999C76.3265 45.1689 75.9427 45.5493 75.9427 46.0185C75.9427 46.4877 76.3265 46.8681 76.7999 46.8681Z" fill="white"/>
<path d="M74.4462 49.5841C74.1114 49.2522 73.5686 49.2523 73.234 49.5841L71.888 50.9183L71.2345 50.2707C70.8998 49.9389 70.357 49.9389 70.0224 50.2707C69.6876 50.6025 69.6876 51.1405 70.0224 51.4722L71.2819 52.7205C71.4426 52.8799 71.6606 52.9694 71.888 52.9694C72.1153 52.9694 72.3334 52.8799 72.494 52.7205L74.4463 50.7856C74.7809 50.4538 74.7809 49.9158 74.4462 49.5841Z" fill="white"/>
<path d="M76.7999 52.002H83.2233C83.6967 52.002 84.0805 51.6216 84.0805 51.1524C84.0805 50.6832 83.6967 50.3028 83.2233 50.3028H76.7999C76.3265 50.3028 75.9427 50.6832 75.9427 51.1524C75.9427 51.6216 76.3265 52.002 76.7999 52.002Z" fill="white"/>
<path d="M74.4462 54.718C74.1114 54.3862 73.5686 54.3862 73.234 54.718L71.888 56.0521L71.2345 55.4046C70.8998 55.0727 70.357 55.0728 70.0224 55.4046C69.6876 55.7364 69.6876 56.2744 70.0224 56.6061L71.2819 57.8544C71.4492 58.0204 71.6686 58.1033 71.888 58.1033C72.1073 58.1033 72.3267 58.0204 72.494 57.8544L74.4463 55.9195C74.7809 55.5877 74.7809 55.0497 74.4462 54.718Z" fill="white"/>
<path d="M76.7999 57.1358H83.2233C83.6967 57.1358 84.0805 56.7554 84.0805 56.2862C84.0805 55.8169 83.6967 55.4366 83.2233 55.4366H76.7999C76.3265 55.4366 75.9427 55.8169 75.9427 56.2862C75.9427 56.7554 76.3265 57.1358 76.7999 57.1358Z" fill="white"/>
<path d="M74.4462 59.8518C74.1114 59.5199 73.5686 59.52 73.234 59.8518L71.888 61.186L71.2345 60.5384C70.8998 60.2066 70.357 60.2066 70.0224 60.5384C69.6876 60.8702 69.6876 61.4082 70.0224 61.7398L71.2819 62.9882C71.4426 63.1476 71.6606 63.2371 71.888 63.2371C72.1153 63.2371 72.3334 63.1476 72.494 62.9882L74.4463 61.0533C74.7809 60.7215 74.7809 60.1836 74.4462 59.8518Z" fill="white"/>
<path d="M76.7999 62.2697H83.2233C83.6967 62.2697 84.0805 61.8893 84.0805 61.4201C84.0805 60.9508 83.6967 60.5704 83.2233 60.5704H76.7999C76.3265 60.5704 75.9427 60.9508 75.9427 61.4201C75.9427 61.8893 76.3265 62.2697 76.7999 62.2697Z" fill="white"/>
<path d="M74.4462 64.9857C74.1114 64.6539 73.5686 64.6539 73.234 64.9857L71.888 66.3198L71.2345 65.6722C70.8998 65.3404 70.357 65.3404 70.0224 65.6722C69.6876 66.004 69.6876 66.5419 70.0224 66.8736L71.2819 68.122C71.4492 68.2878 71.6686 68.3709 71.888 68.3709C72.1073 68.3709 72.3267 68.2879 72.494 68.122L74.4463 66.187C74.7809 65.8555 74.7809 65.3174 74.4462 64.9857Z" fill="white"/>
<path d="M76.7999 67.4034H83.2233C83.6967 67.4034 84.0805 67.0231 84.0805 66.5538C84.0805 66.0846 83.6967 65.7042 83.2233 65.7042H76.7999C76.3265 65.7042 75.9427 66.0846 75.9427 66.5538C75.9427 67.0231 76.3265 67.4034 76.7999 67.4034Z" fill="white"/>
<path d="M73.234 70.1195L71.888 71.4537L71.2345 70.8061C70.8998 70.4743 70.357 70.4743 70.0224 70.8061C69.6876 71.1379 69.6876 71.6758 70.0224 72.0075L71.2819 73.2559C71.4426 73.4153 71.6606 73.5048 71.888 73.5048C72.1153 73.5048 72.3334 73.4153 72.494 73.2559L74.4463 71.3209C74.781 70.9891 74.781 70.4512 74.4463 70.1195C74.1114 69.7876 73.5686 69.7877 73.234 70.1195Z" fill="white"/>
<path d="M76.7999 72.5373H83.2233C83.6967 72.5373 84.0805 72.1569 84.0805 71.6877C84.0805 71.2185 83.6967 70.8381 83.2233 70.8381H76.7999C76.3265 70.8381 75.9427 71.2185 75.9427 71.6877C75.9427 72.1569 76.3265 72.5373 76.7999 72.5373Z" fill="white"/>
</svg>
