<svg width="120" height="119" viewBox="0 0 120 119" fill="none" xmlns="http://www.w3.org/2000/svg">
<path d="M53.0622 4.48376C57.416 1.97011 62.7801 1.97011 67.1338 4.48377L104.304 25.9437C108.657 28.4574 111.339 33.1028 111.339 38.1301V81.05C111.339 86.0774 108.657 90.7228 104.304 93.2364L67.1338 114.696C62.7801 117.21 57.416 117.21 53.0622 114.696L15.8925 93.2364C11.5387 90.7228 8.85664 86.0774 8.85664 81.05V38.1301C8.85664 33.1028 11.5387 28.4574 15.8925 25.9437L53.0622 4.48376Z" fill="#00B2AE"/>
<path fill-rule="evenodd" clip-rule="evenodd" d="M69.0344 18.2837C76.1758 18.2837 82.0195 24.1267 82.0195 31.268V31.6557C81.5981 31.5539 81.1654 31.5065 80.7319 31.5144V30.8115C80.7316 30.6214 80.6565 30.439 80.5229 30.3039C80.3892 30.1687 80.2076 30.0916 80.0175 30.0892C73.2303 30.0151 70.1628 27.2554 64.981 23.3485C64.8982 23.2856 64.8027 23.2414 64.7011 23.219C64.5995 23.1965 64.4943 23.1963 64.3927 23.2184C64.291 23.2405 64.1954 23.2843 64.1123 23.3469C64.0292 23.4095 63.9606 23.4893 63.9113 23.5809C62.2571 26.631 61.0416 29.1123 57.7618 30.6025C57.3226 30.8021 57.3383 31.1648 57.3383 31.5143C56.9048 31.5063 56.4721 31.5537 56.0507 31.6555V31.2678C56.0499 24.1267 61.8929 18.2837 69.0344 18.2837ZM59.3599 39.6299C59.3698 42.1893 60.3935 44.6405 62.2067 46.4467C64.02 48.253 66.4751 49.2671 69.0344 49.2671C71.5938 49.2671 74.0489 48.253 75.8622 46.4467C77.6754 44.6405 78.6991 42.1893 78.709 39.6299V32.0974C73.3775 32.0396 69.3003 29.1386 64.9686 25.8725C63.479 28.6193 61.5133 31.1192 59.3601 32.0974L59.3599 39.6299ZM65.8219 44.7545C65.7155 44.6757 65.6258 44.5767 65.5577 44.4632C65.4896 44.3496 65.4446 44.2238 65.4252 44.0929C65.4057 43.9619 65.4122 43.8284 65.4444 43.7C65.4765 43.5716 65.5337 43.4508 65.6125 43.3445C65.6913 43.2381 65.7903 43.1484 65.9039 43.0803C66.0174 43.0122 66.1432 42.9672 66.2742 42.9477C66.4051 42.9283 66.5386 42.9348 66.667 42.967C66.7954 42.9991 66.9162 43.0562 67.0226 43.1351C67.8283 43.7341 70.2967 43.7341 71.1026 43.1351C71.209 43.0562 71.3298 42.9991 71.4582 42.9669C71.5866 42.9348 71.7201 42.9282 71.8511 42.9477C71.982 42.9671 72.1078 43.0122 72.2214 43.0802C72.3349 43.1483 72.4339 43.2381 72.5128 43.3444C72.5916 43.4507 72.6488 43.5715 72.6809 43.7C72.7131 43.8284 72.7196 43.9619 72.7002 44.0928C72.6808 44.2238 72.6357 44.3496 72.5676 44.4631C72.4996 44.5767 72.4098 44.6757 72.3035 44.7545C70.77 45.8944 67.3495 45.893 65.8219 44.7545ZM64.7791 35.1961C65.0533 35.1961 65.3215 35.2774 65.5495 35.4298C65.7776 35.5822 65.9553 35.7988 66.0603 36.0522C66.1652 36.3055 66.1927 36.5844 66.1392 36.8534C66.0857 37.1224 65.9536 37.3695 65.7597 37.5634C65.5657 37.7574 65.3186 37.8894 65.0496 37.9429C64.7806 37.9964 64.5018 37.969 64.2484 37.864C63.995 37.7591 63.7784 37.5813 63.626 37.3533C63.4737 37.1252 63.3923 36.8571 63.3923 36.5828C63.3923 36.215 63.5384 35.8623 63.7985 35.6023C64.0586 35.3422 64.4113 35.1961 64.7791 35.1961ZM73.2897 35.1961C73.5639 35.1961 73.832 35.2774 74.0601 35.4298C74.2881 35.5822 74.4659 35.7988 74.5708 36.0522C74.6758 36.3055 74.7033 36.5844 74.6498 36.8534C74.5963 37.1224 74.4642 37.3695 74.2702 37.5634C74.0763 37.7574 73.8292 37.8894 73.5602 37.9429C73.2912 37.9964 73.0124 37.969 72.759 37.864C72.5056 37.7591 72.289 37.5813 72.1366 37.3533C71.9842 37.1252 71.9029 36.8571 71.9029 36.5828C71.9029 36.215 72.049 35.8623 72.3091 35.6023C72.5691 35.3422 72.9219 35.1961 73.2897 35.1961ZM57.132 49.8085C57.9426 48.7452 58.8901 47.7937 59.95 46.9788C60.3781 47.5065 60.8507 47.9964 61.3628 48.4431C61.0957 48.641 60.8367 48.8488 60.5856 49.0665L57.132 49.8085ZM80.9438 49.8152L77.4937 49.0758C77.2394 48.8551 76.9768 48.6443 76.7057 48.4434C77.2183 47.9962 77.6914 47.5056 78.1199 46.9772C79.1826 47.7941 80.1322 48.7484 80.9438 49.8152ZM35.3598 56.2663C37.788 56.2663 40.1616 56.9863 42.1806 58.3353C44.1995 59.6844 45.7731 61.6018 46.7023 63.8451C47.6315 66.0885 47.8747 68.557 47.4009 70.9385C46.9272 73.32 45.7579 75.5076 44.0409 77.2246C42.3239 78.9415 40.1364 80.1108 37.7549 80.5845C35.3733 81.0582 32.9048 80.815 30.6615 79.8858C28.4181 78.9566 26.5007 77.3829 25.1517 75.364C23.8027 73.345 23.0827 70.9714 23.0828 68.5432C23.0828 66.9309 23.4003 65.3345 24.0173 63.845C24.6343 62.3555 25.5386 61.0021 26.6786 59.862C27.8187 58.722 29.1721 57.8177 30.6616 57.2008C32.1511 56.5838 33.7476 56.2663 35.3598 56.2663ZM25.8534 79.2233L23.6825 82.9833C23.6408 83.0555 23.6209 83.1382 23.6251 83.2215C23.6292 83.3048 23.6573 83.3851 23.706 83.4528C23.7547 83.5205 23.8219 83.5727 23.8995 83.6032C23.9771 83.6337 24.0619 83.6411 24.1436 83.6246L27.8029 82.886C27.9064 82.8647 28.0141 82.8821 28.1056 82.9349C28.1972 82.9878 28.2661 83.0723 28.2994 83.1726L29.4895 86.7117C29.5161 86.7908 29.565 86.8604 29.6302 86.9124C29.6954 86.9643 29.7742 86.9964 29.8572 87.0047C29.9402 87.0129 30.0238 86.9971 30.098 86.9591C30.1722 86.921 30.2338 86.8624 30.2755 86.7902L32.6978 82.5941C30.1525 82.1132 27.7862 80.9479 25.8534 79.2233ZM44.8664 79.2233C42.9335 80.9479 40.5673 82.1132 38.0219 82.5941L40.4443 86.7896C40.486 86.8618 40.5476 86.9204 40.6218 86.9585C40.696 86.9965 40.7796 87.0124 40.8626 87.0041C40.9455 86.9958 41.0243 86.9638 41.0896 86.9118C41.1548 86.8598 41.2036 86.7902 41.2302 86.7112L42.4202 83.1721C42.4535 83.0718 42.5225 82.9872 42.614 82.9344C42.7055 82.8816 42.8132 82.8642 42.9167 82.8855L46.5761 83.6241C46.6579 83.6405 46.7426 83.6331 46.8203 83.6026C46.8979 83.5722 46.9651 83.5199 47.0137 83.4522C47.0624 83.3845 47.0905 83.3042 47.0947 83.2209C47.0989 83.1376 47.0789 83.0549 47.0372 82.9827L44.8664 79.2233ZM33.57 63.9164V66.7525H30.7331V70.3337H33.57V73.17H37.151V70.3338H39.9872V66.7527H37.1503V63.9164H33.57ZM35.3605 60.4625C33.7623 60.4625 32.2 60.9364 30.8711 61.8243C29.5423 62.7122 28.5065 63.9743 27.8949 65.4508C27.2833 66.9274 27.1233 68.5521 27.4351 70.1196C27.7469 71.6871 28.5165 73.127 29.6466 74.2571C30.7767 75.3872 32.2166 76.1568 33.7841 76.4686C35.3516 76.7804 36.9763 76.6204 38.4529 76.0088C39.9294 75.3972 41.1915 74.3614 42.0794 73.0326C42.9673 71.7037 43.4412 70.1414 43.4412 68.5432C43.4412 66.4 42.5899 64.3447 41.0744 62.8293C39.559 61.3138 37.5037 60.4625 35.3605 60.4625ZM75.6584 50.501L69.3806 58.8371C69.3404 58.891 69.2882 58.9347 69.2281 58.9648C69.168 58.9949 69.1017 59.0106 69.0344 59.0106C68.9672 59.0106 68.9009 58.9949 68.8408 58.9648C68.7807 58.9347 68.7285 58.891 68.6883 58.8371L62.4103 50.5009V49.2574C64.3579 50.6058 66.6706 51.3276 69.0394 51.3266C71.4082 51.3255 73.7202 50.6016 75.6666 49.2515L75.6584 50.501ZM48.5749 53.7157C47.7385 53.9104 46.9933 54.3839 46.4615 55.0582C45.9298 55.7325 45.6432 56.5676 45.6488 57.4264V58.6149C48.0991 61.1534 49.5242 64.5083 49.6501 68.0343C49.7759 71.5602 48.5936 75.0082 46.3306 77.7149L48.7886 81.9724C49.8424 83.7975 48.242 86.0243 46.176 85.6072L45.6488 85.5008V87.6211H68.0232V64.5519L67.5293 65.0526C67.2394 65.3482 66.8872 65.5756 66.4985 65.718C66.1097 65.8604 65.694 65.9145 65.2817 65.8761C64.8695 65.8378 64.4709 65.708 64.1151 65.4963C63.7592 65.2846 63.455 64.9962 63.2246 64.6522L56.7122 54.9107C56.304 56.1814 56.0965 57.5081 56.0973 58.8427V63.353C57.1087 63.6002 57.9945 64.2094 58.5872 65.0655C59.1799 65.9215 59.4384 66.965 59.3139 67.9988C59.1894 69.0325 58.6905 69.9848 57.9115 70.6756C57.1325 71.3664 56.1273 71.7478 55.0861 71.7478C54.045 71.7478 53.0398 71.3664 52.2608 70.6756C51.4818 69.9848 50.9829 69.0325 50.8584 67.9988C50.7339 66.965 50.9924 65.9215 51.5851 65.0655C52.1778 64.2094 53.0636 63.6002 54.075 63.353V58.8422C54.0734 56.779 54.5027 54.7382 55.3355 52.8505L54.992 52.3369L48.5749 53.7157ZM55.0863 69.7267C54.6441 69.7267 54.2117 69.5955 53.844 69.3498C53.4763 69.1042 53.1897 68.7549 53.0205 68.3464C52.8513 67.9378 52.807 67.4882 52.8933 67.0545C52.9795 66.6207 53.1925 66.2223 53.5052 65.9096C53.8179 65.5969 54.2163 65.3839 54.6501 65.2977C55.0838 65.2114 55.5334 65.2557 55.942 65.4249C56.3505 65.5941 56.6997 65.8807 56.9454 66.2484C57.1911 66.6162 57.3223 67.0485 57.3223 67.4907C57.3223 67.7843 57.2645 68.0751 57.1522 68.3464C57.0398 68.6177 56.8751 68.8643 56.6675 69.0719C56.4599 69.2795 56.2133 69.4442 55.942 69.5566C55.6707 69.6689 55.3799 69.7267 55.0863 69.7267ZM70.0455 87.6211H92.4201V57.4264C92.4201 55.6396 91.241 54.0895 89.4939 53.7157L83.1279 52.3515L82.7577 52.9036C83.5745 54.7768 83.9952 56.7986 83.9936 58.8422V60.7556C86.2501 61.5462 87.7953 64.078 88.6209 67.0299C89.8289 71.3505 88.0431 72.7317 86.5182 73.1605C86.3338 73.4897 86.0497 73.7519 85.7068 73.9094C85.3639 74.0669 84.9799 74.1116 84.6099 74.037C84.24 73.9625 83.9033 73.7725 83.6482 73.4945C83.393 73.2165 83.2327 72.8647 83.1901 72.4898C83.1475 72.1149 83.225 71.7361 83.4113 71.408C83.5976 71.0798 83.8832 70.8192 84.227 70.6637C84.5708 70.5081 84.955 70.4656 85.3245 70.5422C85.694 70.6189 86.0296 70.8107 86.2832 71.0902C86.8587 70.7561 87.3192 69.8623 86.6776 67.5671C86.0749 65.4119 85.1911 63.9473 84.2074 63.1636C83.1637 62.3324 82.0591 62.3324 81.015 63.1636C80.0311 63.9473 79.1474 65.4119 78.5449 67.5671C77.9032 69.862 78.3636 70.7561 78.9392 71.0902C79.1928 70.8108 79.5284 70.619 79.8979 70.5424C80.2673 70.4658 80.6515 70.5084 80.9953 70.664C81.339 70.8195 81.6245 71.0801 81.8108 71.4082C81.9971 71.7364 82.0745 72.1151 82.0319 72.49C81.9893 72.8649 81.8289 73.2166 81.5738 73.4946C81.3187 73.7725 80.982 73.9625 80.6121 74.037C80.2422 74.1115 79.8583 74.0668 79.5154 73.9093C79.1726 73.7518 78.8885 73.4896 78.704 73.1605C77.1786 72.7319 75.3935 71.3506 76.6015 67.0299C77.4785 63.894 79.2651 60.9951 81.9713 60.5676V58.8422C81.9721 57.5272 81.7707 56.22 81.3741 54.9663L74.8784 64.6516C74.6479 64.9956 74.3437 65.284 73.9879 65.4957C73.632 65.7074 73.2335 65.8371 72.8212 65.8755C72.409 65.9138 71.9933 65.8598 71.6045 65.7174C71.2157 65.5749 70.8636 65.3476 70.5737 65.052L70.0455 64.5167V87.6211ZM79.7578 51.6293L77.6764 51.1831C75.0826 54.6273 72.5209 58.0623 69.9193 61.5167L72.0112 63.638C72.0911 63.7204 72.1885 63.7839 72.2961 63.8238C72.4037 63.8637 72.5189 63.8791 72.6332 63.8687C72.7475 63.8583 72.858 63.8225 72.9567 63.7639C73.0554 63.7052 73.1397 63.6252 73.2034 63.5298L80.4347 52.7478C80.228 52.3638 80.0022 51.9905 79.7578 51.6293ZM60.388 51.1773L58.3148 51.6234C58.0795 51.971 57.8611 52.33 57.6596 52.7005L64.8996 63.5304C64.9633 63.6258 65.0476 63.7058 65.1462 63.7644C65.2449 63.8231 65.3554 63.8589 65.4697 63.8693C65.584 63.8796 65.6992 63.8643 65.8068 63.8244C65.9144 63.7845 66.0117 63.721 66.0916 63.6386L68.1642 61.5369C65.5562 58.074 62.9882 54.6305 60.388 51.1779V51.1773ZM54.191 36.5833C54.1934 37.3906 54.5151 38.1641 55.086 38.7349C55.6568 39.3058 56.4303 39.6275 57.2376 39.6299H57.3372V33.5366H57.2376C56.4303 33.539 55.6568 33.8607 55.0859 34.4316C54.5151 35.0024 54.1933 35.776 54.191 36.5833ZM80.7307 33.5366H80.8301C81.6381 33.5366 82.4131 33.8576 82.9844 34.429C83.5558 35.0003 83.8768 35.7752 83.8768 36.5833C83.8768 37.3913 83.5558 38.1662 82.9844 38.7376C82.4131 39.3089 81.6381 39.6299 80.8301 39.6299H80.7307V33.5366Z" fill="white"/>
</svg>
