<svg width="120" height="119" viewBox="0 0 120 119" fill="none" xmlns="http://www.w3.org/2000/svg">
<path d="M53.0479 4.48376C57.4017 1.97011 62.7657 1.97011 67.1195 4.48377L104.289 25.9437C108.643 28.4574 111.325 33.1028 111.325 38.1301V81.05C111.325 86.0774 108.643 90.7228 104.289 93.2364L67.1195 114.696C62.7657 117.21 57.4017 117.21 53.0479 114.696L15.8781 93.2364C11.5244 90.7228 8.84232 86.0774 8.84232 81.05V38.1301C8.84232 33.1028 11.5244 28.4574 15.8781 25.9437L53.0479 4.48376Z" fill="#00B2AE"/>
<path d="M48.3718 38.1217C48.397 37.7505 48.6079 37.4451 48.9459 37.2901L58.8917 32.7297C59.2053 32.5858 59.5421 32.6087 59.8336 32.7936C60.1249 32.9785 60.2889 33.2736 60.2921 33.6187L60.3959 44.5597C60.3995 44.9315 60.2127 45.2524 59.8876 45.4331C59.5626 45.6137 59.1915 45.603 58.8775 45.4036L56.1799 43.6909C55.9863 44.6552 55.8846 45.6527 55.8846 46.6741C55.8846 55.0076 62.6403 61.7633 70.9738 61.7633C79.3073 61.7633 86.063 55.0076 86.063 46.6741C86.063 38.3406 79.3073 31.5849 70.9738 31.5849C67.6908 31.5849 64.6531 32.6337 62.1766 34.4141L62.1689 33.6008C62.1595 32.6196 61.6677 31.7346 60.8392 31.2087C60.2582 30.84 59.5854 30.6963 58.9279 30.785C62.2742 28.2436 66.4475 26.7349 70.9738 26.7349C81.9859 26.7349 90.9129 35.6619 90.9129 46.674C90.9129 57.686 81.9859 66.6131 70.9738 66.6131C59.9618 66.6131 51.0347 57.6859 51.0347 46.674C51.0347 44.6856 51.3258 42.7651 51.8676 40.9531L48.8278 39.0231C48.5138 38.8238 48.3462 38.4925 48.3714 38.1215L48.3718 38.1217ZM68.5716 53.7063C69.2088 53.7902 69.7927 53.5919 70.2473 53.1374L80.5436 42.841C81.2772 42.1075 81.2772 40.9071 80.5436 40.1736C79.8101 39.44 78.6097 39.44 77.8762 40.1736L69.2126 48.8371L66.7961 44.6518C66.2782 43.7547 65.1168 43.4434 64.2196 43.9615C63.3212 44.4802 63.0105 45.6396 63.5293 46.538L67.1002 52.7231C67.4216 53.2798 67.9343 53.6223 68.5716 53.7063ZM88.9694 67.7937C83.6 70.8936 75.116 77.112 68.0022 77.3332C64.3607 77.4223 60.087 76.5244 58.3511 75.621C57.6019 75.2315 57.4771 74.501 57.7525 73.9716C58.0277 73.442 58.7725 73.2281 59.3021 73.5034C60.8044 74.2852 64.6035 75.0599 67.9054 74.9791C69.1696 74.9482 70.3329 74.7999 71.1963 74.4857C73.7643 73.5514 73.0078 69.8746 69.9211 69.9912C51.7711 69.9912 50.7468 56.0464 35.5135 74.0414C35.5237 74.0515 35.5342 74.0613 35.5444 74.0714L46.0035 84.5304C46.0456 84.5725 46.0864 84.6154 46.1265 84.6589C49.4401 83.0997 53.1144 83.0685 57.0491 83.3039C60.0761 83.4849 63.6887 83.922 67.0029 83.8488C71.6339 83.7465 74.472 82.4895 78.5385 80.3353C83.1682 77.883 91.2147 72.9983 92.6185 71.1531C94.6274 68.5121 92.0338 66.0247 88.9695 67.7937H88.9694ZM33.9226 75.6934C33.059 74.8298 31.6459 74.8298 30.7821 75.6934L27.6296 78.8458L41.2291 92.4454L44.3815 89.2928C45.245 88.4292 45.245 87.0159 44.3815 86.1524L33.9223 75.6934H33.9226Z" fill="white"/>
</svg>
