<svg width="120" height="121" viewBox="0 0 120 121" fill="none" xmlns="http://www.w3.org/2000/svg">
<rect x="5" y="5.84058" width="110" height="110" rx="55" fill="#128894"/>
<rect x="5" y="5.84058" width="110" height="110" rx="55" stroke="white" stroke-width="10"/>
<path fill-rule="evenodd" clip-rule="evenodd" d="M51.7108 33.8427C51.7108 31.9143 53.2928 30.3406 55.2313 30.3406H74.3057C76.2121 30.3406 77.8261 31.7557 77.8261 33.8427V36.899C77.8261 38.8274 76.2441 40.4011 74.3057 40.4011H73.8576V48.0837C73.858 48.0984 73.858 48.1132 73.8576 48.1281V81.7258C73.8576 86.7105 69.7153 90.8312 64.7045 90.8312C59.6936 90.8312 55.5513 86.7105 55.5513 81.7258V76.9346C54.8176 77.1968 54.0578 77.3861 53.2373 77.5012C52.9674 79.4697 53.3273 81.4679 54.1959 83.52C54.297 83.759 54.2962 84.0286 54.1935 84.2669C53.6252 85.5861 52.3236 86.1829 51.1187 86.1829C49.9135 86.1829 48.6117 85.5911 47.9717 84.3178C47.8463 84.0684 47.8368 83.777 47.9456 83.52C48.8173 81.4604 49.1767 79.4552 48.9012 77.4798C48.0933 77.3433 47.3104 77.1336 46.5597 76.8573C46.0505 77.4669 45.7566 77.9783 45.5577 78.5301C45.299 79.2479 45.1781 80.0927 45.0497 81.4343C45.0228 81.7145 44.8731 81.9687 44.6404 82.129C42.3207 83.7265 38.9376 81.8219 39.3007 78.933C39.3342 78.6663 39.479 78.4261 39.6997 78.2711C40.7692 77.5201 41.4138 76.9784 41.8863 76.3874C42.2447 75.9392 42.5294 75.4305 42.809 74.7185C42.1451 74.1779 41.5347 73.5732 40.987 72.9132C40.2571 73.202 39.7533 73.5088 39.31 73.8867C38.7299 74.3814 38.2127 75.0298 37.437 76.0587C37.2691 76.2814 37.012 76.4202 36.7328 76.4387C35.3271 76.5319 34.1826 75.6931 33.595 74.6701C33.0064 73.6455 32.8643 72.2331 33.7245 71.0921C33.8858 70.8783 34.1297 70.7414 34.3971 70.7148C35.6547 70.5897 36.4792 70.4402 37.1884 70.1688C37.7256 69.9633 38.231 69.6744 38.8237 69.2205C38.506 68.3945 38.2677 67.5271 38.1182 66.6273C36.1586 66.3553 34.2491 66.7109 32.1769 67.5789C31.9186 67.6871 31.6256 67.6776 31.3749 67.5529C30.0949 66.9162 29.5 65.6213 29.5 64.4223C29.5 63.2237 30.0999 61.9289 31.4261 61.3635C31.6656 61.2614 31.9367 61.2605 32.1769 61.3611C34.2491 62.2291 36.1586 62.5847 38.1182 62.3127C38.2572 61.4763 38.4729 60.6679 38.7577 59.8947C38.1381 59.4132 37.6162 59.1112 37.0603 58.8985C36.3512 58.6272 35.5267 58.4776 34.2691 58.3525C33.9891 58.3247 33.7354 58.176 33.5752 57.9458C32.7528 56.764 32.869 55.3427 33.467 54.3017C34.0635 53.2633 35.2375 52.4453 36.6678 52.635C36.9328 52.6701 37.1711 52.8136 37.3253 53.0309C38.0916 54.1108 38.6055 54.7504 39.1718 55.2198C39.614 55.5864 40.1211 55.8754 40.875 56.1636C41.4247 55.4829 42.0403 54.859 42.712 54.3013C42.4223 53.5472 42.13 53.0174 41.7583 52.5526C41.2857 51.9617 40.6412 51.4199 39.5717 50.6689C39.3352 50.5028 39.1866 50.2395 39.1674 49.9521C39.0743 48.563 39.9067 47.399 40.9202 46.7817C41.9367 46.1626 43.3723 45.9596 44.5419 46.8322C44.7581 46.9936 44.896 47.2381 44.9216 47.5058C45.0474 48.8199 45.1981 49.6382 45.47 50.3417C45.6875 50.9042 45.9982 51.433 46.5026 52.1039C47.2707 51.8172 48.0728 51.6001 48.9012 51.4602C49.1767 49.4848 48.8173 47.4796 47.9456 45.42C47.8444 45.181 47.8453 44.9114 47.948 44.6731C48.5163 43.3539 49.8179 42.7571 51.0227 42.7571C52.228 42.7571 53.5298 43.3489 54.1698 44.6222C54.2951 44.8716 54.3047 45.163 54.1959 45.42C53.3251 47.4773 52.9656 49.4803 53.2393 51.4536C54.038 51.589 54.818 51.8166 55.5513 52.0716V48.1267C55.551 48.1124 55.551 48.0981 55.5513 48.0838V40.4011H55.2313C53.2928 40.4011 51.7108 38.8274 51.7108 36.899V33.8427ZM56.9907 38.4909C56.8497 38.4099 56.686 38.3635 56.5114 38.3635C56.3369 38.3635 56.1732 38.4099 56.0321 38.4909H55.2313C54.3533 38.4909 53.6311 37.7724 53.6311 36.899V33.8427C53.6311 32.9693 54.3533 32.2508 55.2313 32.2508H74.3057C75.2156 32.2508 75.9059 32.8733 75.9059 33.8427V36.899C75.9059 37.7724 75.1836 38.4909 74.3057 38.4909H73.3768C73.2358 38.4099 73.0721 38.3635 72.8975 38.3635C72.7229 38.3635 72.5592 38.4099 72.4182 38.4909H56.9907ZM57.4715 40.4011V47.471C59.334 48.2169 60.5522 48.3771 61.4366 48.3003C62.401 48.2166 63.0775 47.8486 63.9502 47.3663L63.9581 47.3619C64.8259 46.8823 65.8615 46.31 67.356 46.153C68.5782 46.0246 70.0416 46.1777 71.9374 46.7657V40.4011H57.4715ZM71.9374 48.7762C69.9061 48.0792 68.5485 47.9486 67.5576 48.0527C66.4804 48.1658 65.7415 48.5615 64.8827 49.0361C64.8626 49.0473 64.8423 49.0585 64.822 49.0697C63.9796 49.5356 62.99 50.083 61.6035 50.2033C60.4756 50.3012 59.156 50.1146 57.4715 49.5147V53.4326C57.4719 53.4473 57.4719 53.462 57.4715 53.4767V67.1856C57.4719 67.2004 57.4719 67.2153 57.4715 67.2301V71.5157C57.4719 71.5306 57.4719 71.5455 57.4715 71.5603V75.4649C57.4718 75.4783 57.4718 75.4916 57.4715 75.5049V81.7258C57.4715 85.6555 60.7542 88.9209 64.7045 88.9209C68.6548 88.9209 71.9374 85.6555 71.9374 81.7258V48.7762ZM55.5513 74.8793V72.7408C55.4879 72.7453 55.4238 72.7477 55.3593 72.7477C53.5821 72.7477 51.9669 71.3337 51.9669 69.3729C51.9669 67.605 53.3882 65.9982 55.3593 65.9982C55.4238 65.9982 55.4879 66.0006 55.5513 66.0051V54.1061C54.4716 53.6968 53.3863 53.3551 52.328 53.2594C51.9081 53.2214 51.5622 52.9154 51.4754 52.505C50.949 50.0178 51.2954 47.5599 52.2309 45.1591C51.9375 44.8449 51.4992 44.6673 51.0227 44.6673C50.5483 44.6673 50.1495 44.8401 49.899 45.1293C50.8432 47.5396 51.1946 50.0075 50.6661 52.505C50.5809 52.9076 50.246 53.2108 49.835 53.2572C44.6523 53.8431 40.5186 57.946 39.9275 63.2383C39.8817 63.6482 39.5766 63.9825 39.171 64.0675C36.6572 64.5939 34.2894 64.2421 31.8843 63.3047C31.5938 63.5539 31.4202 63.9506 31.4202 64.4223C31.4202 64.896 31.5986 65.3319 31.9142 65.6237C34.309 64.695 36.6676 64.3483 39.171 64.8725C39.5766 64.9575 39.8817 65.2918 39.9275 65.7017C40.056 66.8522 40.3519 67.9464 40.7896 68.9605C40.8566 69.0576 40.9033 69.1636 40.9301 69.2731C41.7017 70.9216 42.8535 72.3444 44.2697 73.4335C44.4672 73.499 44.629 73.6222 44.7426 73.778C46.2243 74.7993 47.9611 75.471 49.835 75.6828C50.246 75.7293 50.5809 76.0324 50.6661 76.435C51.1925 78.9223 50.8461 81.3801 49.9106 83.7809C50.204 84.0951 50.6423 84.2727 51.1187 84.2727C51.5931 84.2727 51.992 84.0999 52.2425 83.8107C51.2983 81.4004 50.9468 78.9325 51.4754 76.435C51.5628 76.022 51.9124 75.715 52.3352 75.68C53.5316 75.5808 54.5503 75.3157 55.5513 74.8793ZM44.4201 75.8414C44.1343 76.4913 43.8083 77.0523 43.3891 77.5766C42.823 78.2845 42.1195 78.884 41.2122 79.5427C41.3515 80.406 42.3419 81.0085 43.1899 80.735C43.3054 79.6385 43.4472 78.7259 43.7501 77.8854C43.9877 77.2261 44.3142 76.6363 44.7641 76.0378C44.6484 75.974 44.5337 75.9085 44.4201 75.8414ZM39.6563 70.9842C39.0756 71.396 38.5058 71.7114 37.8777 71.9518C37.0495 72.2686 36.1637 72.4377 35.0935 72.5615C34.9822 72.9072 35.0323 73.3221 35.2622 73.7224C35.4928 74.1238 35.8413 74.3969 36.2175 74.495C36.844 73.6757 37.4046 72.9955 38.0603 72.4364C38.5887 71.9859 39.1605 71.628 39.8515 71.3177C39.7849 71.2076 39.7198 71.0964 39.6563 70.9842ZM55.5513 67.9266C55.4817 67.9145 55.4191 67.9084 55.3593 67.9084C54.514 67.9084 53.8871 68.5939 53.8871 69.3729C53.8871 70.2138 54.5762 70.8374 55.3593 70.8374C55.4191 70.8374 55.4817 70.8314 55.5513 70.8193V67.9266ZM44.7268 52.9229C44.2772 52.2904 43.9349 51.6923 43.6778 51.0274C43.3574 50.1987 43.1875 49.3123 43.063 48.1996C42.7319 48.105 42.3282 48.164 41.9228 48.4109C41.5089 48.663 41.2259 49.0361 41.1233 49.4258C42.0117 50.0733 42.7032 50.6658 43.261 51.3634C43.6933 51.904 44.0264 52.4835 44.3185 53.1593C44.4531 53.0781 44.5892 52.9993 44.7268 52.9229ZM39.7607 57.7746C39.0641 57.4758 38.482 57.1346 37.9425 56.6873C37.2652 56.1258 36.6937 55.4278 36.0491 54.5404C35.6906 54.6119 35.3589 54.8584 35.1342 55.2495C34.9055 55.6476 34.8453 56.103 34.9786 56.5074C36.0429 56.6311 36.9249 56.8 37.7497 57.1156C38.3925 57.3616 38.9743 57.6862 39.5691 58.1123C39.6314 57.9987 39.6953 57.8861 39.7607 57.7746ZM56.6394 32.8875C57.1697 32.8875 57.5996 33.3152 57.5996 33.8427V36.6443C57.5996 37.1718 57.1697 37.5994 56.6394 37.5994C56.1092 37.5994 55.6793 37.1718 55.6793 36.6443V33.8427C55.6793 33.3152 56.1092 32.8875 56.6394 32.8875ZM60.736 32.8875C61.2662 32.8875 61.6961 33.3152 61.6961 33.8427V36.6443C61.6961 37.1718 61.2662 37.5994 60.736 37.5994C60.2057 37.5994 59.7758 37.1718 59.7758 36.6443V33.8427C59.7758 33.3152 60.2057 32.8875 60.736 32.8875ZM64.7045 32.8875C65.2347 32.8875 65.6646 33.3152 65.6646 33.8427V36.6443C65.6646 37.1718 65.2347 37.5994 64.7045 37.5994C64.1742 37.5994 63.7444 37.1718 63.7444 36.6443V33.8427C63.7444 33.3152 64.1742 32.8875 64.7045 32.8875ZM68.801 32.8875C69.3313 32.8875 69.7611 33.3152 69.7611 33.8427V36.6443C69.7611 37.1718 69.3313 37.5994 68.801 37.5994C68.2707 37.5994 67.8409 37.1718 67.8409 36.6443V33.8427C67.8409 33.3152 68.2707 32.8875 68.801 32.8875ZM72.7695 32.8875C73.2998 32.8875 73.7296 33.3152 73.7296 33.8427V36.6443C73.7296 37.1718 73.2998 37.5994 72.7695 37.5994C72.2392 37.5994 71.8094 37.1718 71.8094 36.6443V33.8427C71.8094 33.3152 72.2392 32.8875 72.7695 32.8875ZM80.5524 42.4645L88.5795 45.783V43.5256L81.3432 40.5808C80.9282 41.1224 80.6493 41.769 80.5524 42.4645ZM83.1435 39.2495L88.1983 41.3066C87.5455 39.9296 86.1299 39.0003 84.547 39.0003C84.0505 39.0003 83.5783 39.0887 83.1435 39.2495ZM90.496 42.7976C90.3816 39.5574 87.6808 37.0901 84.547 37.0901C81.1844 37.0901 78.5942 39.826 78.5942 43.0118V51.6715C78.5942 53.9907 79.9163 55.9406 81.7946 56.9184V88.6026C81.7946 90.1489 82.9926 91.3406 84.547 91.3406C86.1014 91.3406 87.2993 90.1489 87.2993 88.6026V56.9184C89.1776 55.9406 90.4997 53.9907 90.4997 51.6715V51.5663C90.5001 51.5517 90.5001 51.5372 90.4997 51.5227V47.2364C90.5001 47.2219 90.5001 47.2074 90.4997 47.1929V43.0118C90.4997 42.9829 90.4995 42.954 90.4991 42.9253C90.501 42.8824 90.4999 42.8398 90.496 42.7976ZM88.5795 47.8516L80.5145 44.5174V46.7787L88.5795 50.1129V47.8516ZM88.549 52.1689L80.5145 48.8473V51.1084L87.7549 54.1003C88.1754 53.554 88.4592 52.8947 88.549 52.1689ZM85.9045 55.4042L80.8714 53.3244C81.2715 54.2012 81.979 54.9019 82.8437 55.3049C83.0285 55.3218 83.1981 55.3908 83.3376 55.497C83.7217 55.618 84.1285 55.683 84.547 55.683C84.9655 55.683 85.3723 55.618 85.7563 55.497C85.8026 55.4618 85.8522 55.4307 85.9045 55.4042ZM85.3791 57.5347C85.1063 57.5733 84.8284 57.5932 84.547 57.5932C84.2656 57.5932 83.9877 57.5733 83.7149 57.5347V88.6026C83.7149 89.0939 84.0531 89.4303 84.547 89.4303C85.0409 89.4303 85.3791 89.0939 85.3791 88.6026V57.5347ZM50.6227 55.9377C50.1631 55.9377 49.7906 56.3083 49.7906 56.7654C49.7906 57.2226 50.1631 57.5932 50.6227 57.5932C51.0822 57.5932 51.4548 57.2226 51.4548 56.7654C51.4548 56.3083 51.0822 55.9377 50.6227 55.9377ZM47.8703 56.7654C47.8703 55.2533 49.1026 54.0274 50.6227 54.0274C52.1428 54.0274 53.375 55.2533 53.375 56.7654C53.375 58.2776 52.1428 59.5034 50.6227 59.5034C49.1026 59.5034 47.8703 58.2776 47.8703 56.7654ZM44.3499 62.4324C43.8903 62.4324 43.5178 62.803 43.5178 63.2602C43.5178 63.7174 43.8903 64.088 44.3499 64.088C44.8094 64.088 45.182 63.7174 45.182 63.2602C45.182 62.803 44.8094 62.4324 44.3499 62.4324ZM41.5975 63.2602C41.5975 61.748 42.8298 60.5222 44.3499 60.5222C45.87 60.5222 47.1022 61.748 47.1022 63.2602C47.1022 64.7724 45.87 65.9982 44.3499 65.9982C42.8298 65.9982 41.5975 64.7724 41.5975 63.2602ZM51.1347 62.9418C50.958 62.9418 50.8147 63.0844 50.8147 63.2602C50.8147 63.436 50.958 63.5786 51.1347 63.5786C51.3115 63.5786 51.4548 63.436 51.4548 63.2602C51.4548 63.0844 51.3115 62.9418 51.1347 62.9418ZM48.8945 63.2602C48.8945 62.0294 49.8975 61.0316 51.1347 61.0316C52.372 61.0316 53.375 62.0294 53.375 63.2602C53.375 64.491 52.372 65.4888 51.1347 65.4888C49.8975 65.4888 48.8945 64.491 48.8945 63.2602ZM46.7822 69.946C46.6054 69.946 46.4622 70.0885 46.4622 70.2644C46.4622 70.4402 46.6054 70.5827 46.7822 70.5827C46.9589 70.5827 47.1022 70.4402 47.1022 70.2644C47.1022 70.0885 46.9589 69.946 46.7822 69.946ZM44.5419 70.2644C44.5419 69.0336 45.5449 68.0358 46.7822 68.0358C48.0195 68.0358 49.0225 69.0336 49.0225 70.2644C49.0225 71.4952 48.0195 72.493 46.7822 72.493C45.5449 72.493 44.5419 71.4952 44.5419 70.2644ZM60.608 71.2195C61.1382 71.2195 61.5681 71.6471 61.5681 72.1746V81.7257C61.5681 83.4905 62.9304 84.8458 64.7045 84.8458C65.2347 84.8458 65.6646 85.2734 65.6646 85.8009C65.6646 86.3284 65.2347 86.756 64.7045 86.756C61.8699 86.756 59.6478 84.5455 59.6478 81.7257V72.1746C59.6478 71.6471 60.0777 71.2195 60.608 71.2195Z" fill="white"/>
</svg>
