<svg width="121" height="121" viewBox="0 0 121 121" fill="none" xmlns="http://www.w3.org/2000/svg">
<rect x="5.7608" y="5.14795" width="110" height="110" rx="55" fill="#128894"/>
<rect x="5.7608" y="5.14795" width="110" height="110" rx="55" stroke="white" stroke-width="10"/>
<path d="M78.5196 47.8389C76.8866 47.8389 75.5581 49.1766 75.5581 50.8207C75.5581 52.4666 76.8866 53.8057 78.5196 53.8057C80.1509 53.8057 81.4781 52.4666 81.4781 50.8207C81.478 49.1766 80.1509 47.8389 78.5196 47.8389ZM78.5196 52.165C77.7843 52.165 77.1859 51.5619 77.1859 50.8207C77.1859 50.0812 77.7843 49.4795 78.5196 49.4795C79.2534 49.4795 79.8503 50.0812 79.8503 50.8207C79.8502 51.5619 79.2532 52.165 78.5196 52.165Z" fill="white"/>
<path d="M70.2947 47.8389C68.6617 47.8389 67.3332 49.1766 67.3332 50.8207C67.3332 52.4666 68.6617 53.8057 70.2947 53.8057C71.926 53.8057 73.2532 52.4666 73.2532 50.8207C73.2531 49.1766 71.926 47.8389 70.2947 47.8389ZM70.2947 52.165C69.5594 52.165 68.961 51.5619 68.961 50.8207C68.961 50.0812 69.5594 49.4795 70.2947 49.4795C71.0285 49.4795 71.6254 50.0812 71.6254 50.8207C71.6253 51.5619 71.0283 52.165 70.2947 52.165Z" fill="white"/>
<path d="M80.1143 36.4616H68.7001C67.9464 36.4616 67.3331 37.0796 67.3331 37.8393V43.3422C67.3331 44.1019 67.9462 44.72 68.7001 44.72H72.639C73.0886 44.72 73.4529 44.3527 73.4529 43.8997C73.4529 43.4466 73.0886 43.0793 72.639 43.0793H68.9609V38.1022H79.8502V43.0792H76.5962C76.1466 43.0792 75.7823 43.4465 75.7823 43.8996C75.7823 44.3526 76.1466 44.7199 76.5962 44.7199H80.1143C80.8663 44.7199 81.478 44.1018 81.478 43.3421V37.8394C81.478 37.0797 80.8663 36.4616 80.1143 36.4616Z" fill="white"/>
<path d="M80.8546 32.1479H67.9567C65.2512 32.1479 63.0502 34.3663 63.0502 37.093V52.7593C63.0502 57.3735 66.7659 61.1287 71.3397 61.147V65.4808H60.0401C60.6468 63.6428 60.4696 61.9919 60.1716 60.8511C59.7194 59.1203 58.7335 57.5903 57.4657 56.6526C56.6609 56.0587 55.6324 55.928 54.7811 56.3111C53.9188 56.6994 53.3619 57.5595 53.253 58.6717C52.9903 61.3866 52.1836 63.1828 50.787 64.1628C49.7024 64.9231 47.5033 65.4526 46.5198 65.4807H44.3047V65.1274C44.3047 64.4805 43.7837 63.954 43.1436 63.954H36.925C36.2831 63.954 35.7608 64.4804 35.7608 65.1274V73.0798C35.7608 73.5328 36.1252 73.9001 36.5747 73.9001C37.0242 73.9001 37.3886 73.5328 37.3886 73.0798V65.5948H42.6768V84.7887H37.3886V76.8609C37.3886 76.4078 37.0242 76.0406 36.5747 76.0406C36.1252 76.0406 35.7608 76.4078 35.7608 76.8609V85.2561C35.7608 85.903 36.283 86.4294 36.925 86.4294H43.1437C43.7839 86.4294 44.3048 85.9031 44.3048 85.2561V84.9027H46.0318C47.4101 84.9027 48.1259 85.4574 49.032 86.1598C50.0281 86.9319 51.2679 87.8928 53.57 88.1432C53.5991 88.1464 53.6282 88.1479 53.6574 88.1479H68.147C69.5144 88.1479 70.3491 87.5609 70.8086 87.0685C71.3958 86.4393 71.7192 85.5981 71.7192 84.7001C71.7192 83.9465 71.4816 83.189 71.0161 82.5766C72.3244 81.9992 73.0015 80.7155 73.0015 79.4426C73.0015 78.6884 72.7636 77.9304 72.2975 77.3177C72.7778 77.1049 73.1296 76.817 73.374 76.5552C73.9612 75.9259 74.2846 75.0847 74.2846 74.1868C74.2846 73.5582 74.1188 72.9271 73.7939 72.3795H77.1461C79.4912 72.3795 80.7183 70.6443 80.7183 68.9301C80.7183 67.2981 79.6052 65.648 77.4745 65.4936V61.1468C82.0469 61.1268 85.7608 57.3723 85.7608 52.7592V37.093C85.761 34.3663 83.56 32.1479 80.8546 32.1479ZM75.8469 65.6756C75.8469 66.4749 75.2004 67.1252 74.4057 67.1252C73.6127 67.1252 72.9675 66.4749 72.9675 65.6756V57.1006H75.8469V65.6756ZM69.6229 85.9446C69.2793 86.3127 68.769 86.5074 68.147 86.5074H61.2586C59.9155 86.5074 59.3143 85.5997 59.3143 84.7002C59.3143 84.2215 59.4806 83.7796 59.7828 83.4558C60.1263 83.0876 60.6367 82.8929 61.2586 82.8929H68.147C69.4902 82.8929 70.0914 83.8006 70.0914 84.7001C70.0915 85.179 69.925 85.6208 69.6229 85.9446ZM69.4283 81.2524H61.2588C59.9148 81.2524 59.3132 80.3435 59.3132 79.4428C59.3132 78.9638 59.4797 78.5216 59.7819 78.1978C60.1256 77.8294 60.6363 77.6348 61.2588 77.6348H69.4283C70.7722 77.6348 71.3738 78.5428 71.3738 79.4428C71.3738 80.3435 70.7722 81.2524 69.4283 81.2524ZM72.6569 74.1869C72.6569 75.0864 72.0557 75.9941 70.7125 75.9941H61.2588C59.9148 75.9941 59.3132 75.0859 59.3132 74.186C59.3132 73.7075 59.4796 73.2658 59.7817 72.9423C60.1254 72.5741 60.6362 72.3795 61.2586 72.3795H70.7124C72.0557 72.3797 72.6569 73.2874 72.6569 74.1869ZM79.0906 68.9302C79.0906 69.8306 78.4894 70.739 77.1462 70.739H61.2588C58.9129 70.739 57.6854 72.4731 57.6854 74.1861C57.6854 75.1645 58.086 76.1491 58.8658 76.8145C58.086 77.4799 57.6854 78.4645 57.6854 79.4428C57.6854 80.4223 58.0868 81.4083 58.8678 82.074C58.7664 82.1604 58.6757 82.2475 58.5972 82.3318C58.01 82.9611 57.6866 83.8023 57.6866 84.7002C57.6866 85.3288 57.8524 85.9599 58.1773 86.5074H53.7023C51.8834 86.3003 50.9803 85.6003 50.0243 84.8594C49.0113 84.0741 47.9636 83.2621 46.0317 83.2621H44.3047V67.1214H46.5939C47.6298 67.1115 50.3357 66.4777 51.7168 65.5096C53.5289 64.238 54.5613 62.0533 54.873 58.8319C54.9088 58.4667 55.037 57.9929 55.4451 57.809C55.7591 57.6675 56.1747 57.7332 56.5033 57.9757C58.4737 59.4331 59.6414 62.8871 58.092 65.9261C57.9623 66.1804 57.9734 66.4843 58.1213 66.7283C58.2691 66.9724 58.5323 67.1212 58.8159 67.1212H71.6968C72.2124 68.0984 73.2328 68.7656 74.4054 68.7656C75.5797 68.7656 76.6015 68.0977 77.1173 67.1198C77.1269 67.1201 77.1363 67.1212 77.146 67.1212C78.4894 67.1214 79.0906 68.0299 79.0906 68.9302ZM84.1332 52.7593C84.1332 56.4677 81.1495 59.4863 77.4747 59.5063V56.7942C77.4747 56.0585 76.8808 55.4599 76.1509 55.4599H72.6606C71.9322 55.4599 71.3397 56.0585 71.3397 56.7942V59.5064C67.6634 59.488 64.678 56.4688 64.678 52.7593V37.093C64.678 35.2709 66.1488 33.7886 67.9567 33.7886H80.8547C82.6625 33.7886 84.1333 35.2709 84.1333 37.093L84.1332 52.7593Z" fill="white"/>
</svg>
