<svg width="120" height="119" viewBox="0 0 120 119" fill="none" xmlns="http://www.w3.org/2000/svg">
<path d="M52.8387 4.48376C57.1925 1.97011 62.5566 1.97011 66.9104 4.48377L104.08 25.9437C108.434 28.4574 111.116 33.1028 111.116 38.1301V81.05C111.116 86.0774 108.434 90.7228 104.08 93.2364L66.9104 114.696C62.5566 117.21 57.1925 117.21 52.8387 114.696L15.669 93.2364C11.3152 90.7228 8.63317 86.0774 8.63317 81.05V38.1301C8.63317 33.1028 11.3152 28.4574 15.669 25.9437L52.8387 4.48376Z" fill="#00B2AE"/>
<path fill-rule="evenodd" clip-rule="evenodd" d="M45.7776 35.5023V42.1209C45.7776 42.3101 45.9338 42.4691 46.1244 42.4691H63.8183C64.0089 42.4691 64.1707 42.3101 64.1707 42.1209V35.5023C64.1707 33.9779 62.9286 32.7359 61.4001 32.7359H59.3849C59.1615 32.7359 58.949 32.6468 58.7913 32.4878C58.6405 32.3274 58.5569 32.1121 58.5624 31.89C58.5624 31.8558 58.5624 31.8215 58.5624 31.7872C58.5624 29.8077 56.9502 28.1969 54.9748 28.1969C52.9939 28.1969 51.3817 29.8077 51.3817 31.7872V31.89C51.3927 32.1121 51.3091 32.3274 51.1528 32.4878C50.9965 32.6468 50.784 32.7359 50.5647 32.7359H48.544C47.0141 32.7359 45.7776 33.9779 45.7776 35.5023ZM86.0129 63.6657H85.0327C84.9436 64.7555 84.6571 65.8193 84.1992 66.8077L85.0382 67.2944C85.5811 66.1607 85.9114 64.9379 86.0129 63.6657ZM85.0382 58.3946L84.1924 58.8813C84.6461 59.8491 84.9368 60.9075 85.0382 62.0206H86.006C85.906 60.732 85.5701 59.5092 85.0382 58.3946ZM81.5562 54.319L81.0695 55.1607C81.9647 55.7872 82.7433 56.5659 83.3698 57.4583L84.2088 56.9717C83.4932 55.9353 82.5925 55.036 81.5562 54.319ZM76.5072 52.5232V53.4937C77.6217 53.5897 78.6787 53.8817 79.6479 54.3355L80.1346 53.4937C79.0214 52.9618 77.8013 52.626 76.5072 52.5232ZM71.2403 53.4937L71.7215 54.3355C72.6893 53.8817 73.7531 53.5897 74.8622 53.4937V52.5232C73.5749 52.626 72.3548 52.9618 71.2403 53.4937ZM67.166 56.9717L68.005 57.4583C68.6315 56.5659 69.4102 55.7872 70.2999 55.1607L69.8132 54.319C68.7768 55.036 67.8762 55.9353 67.166 56.9717ZM66.3367 62.0206C66.4312 60.9075 66.7232 59.8491 67.1756 58.8813L66.3367 58.3946C65.8048 59.5092 65.4689 60.732 65.3688 62.0206H66.3367ZM67.177 66.8077C66.7123 65.8193 66.4326 64.7555 66.338 63.6657H65.3702C65.4716 64.9543 65.8061 66.1771 66.338 67.2917L67.177 66.8077ZM75.6847 63.4203C76.0041 63.4203 76.2673 63.1612 76.2673 62.8432C76.2673 62.5251 76.0041 62.266 75.6847 62.266C75.3653 62.266 75.1075 62.5251 75.1075 62.8432C75.1075 63.1612 75.3653 63.4203 75.6847 63.4203ZM82.0606 71.0026C80.225 72.4393 78.0248 73.1988 75.6847 73.1988C72.1533 73.1988 69.0345 71.4207 67.1647 68.7146L68.6754 67.8386C68.8659 67.7303 69.0058 67.5508 69.062 67.3396C69.1182 67.1285 69.0894 66.9037 68.9783 66.7145C68.3011 65.5438 67.9433 64.2044 67.9433 62.8432C67.9433 58.5742 71.4144 55.1004 75.6847 55.1004C79.955 55.1004 83.4315 58.5742 83.4315 62.8432C83.4315 64.2044 83.0737 65.5438 82.3965 66.7145C82.2841 66.9037 82.2567 67.1285 82.3129 67.3396C82.3691 67.5508 82.5089 67.7303 82.694 67.8386L84.217 68.716C84.1046 68.8736 83.9936 69.0286 83.8757 69.1794C83.1793 69.6921 82.5692 70.3076 82.0606 71.0026ZM80.3525 66.4869L77.061 64.5869C76.6799 64.8858 76.2042 65.0653 75.6847 65.0653C74.4591 65.0653 73.4625 64.0687 73.4625 62.8432C73.4625 61.6176 74.4591 60.621 75.6847 60.621C76.9102 60.621 77.9069 61.6176 77.9069 62.8432C77.9069 62.9515 77.8959 63.057 77.8849 63.1612L81.1764 65.0626C81.5685 65.2902 81.7028 65.7933 81.478 66.1867C81.3217 66.4499 81.0476 66.598 80.7611 66.598C80.6212 66.598 80.4814 66.5623 80.3525 66.4869ZM88.878 69.178C85.1273 69.178 82.0771 72.2282 82.0771 75.9775C82.0771 79.7283 85.1273 82.7785 88.878 82.7785C92.6288 82.7785 95.679 79.7283 95.679 75.9775C95.679 72.2282 92.6288 69.178 88.878 69.178ZM87.865 77.1784L92.0078 73.0343C92.3327 72.7121 92.8536 72.7121 93.1716 73.0343C93.491 73.3551 93.491 73.876 93.1716 74.1968L88.4476 78.9222C88.2858 79.0826 88.072 79.1635 87.865 79.1635C87.6525 79.1635 87.44 79.0826 87.2823 78.9222L84.5899 76.2284C84.265 75.9063 84.265 75.3867 84.5899 75.0645C84.9093 74.7438 85.4289 74.7438 85.7483 75.0645L87.865 77.1784ZM63.684 62.8432C63.684 69.4604 69.0688 74.8438 75.6847 74.8438C77.4641 74.8438 79.1722 74.4627 80.7391 73.7334C80.5431 74.449 80.4362 75.2003 80.4362 75.9775C80.4362 76.0735 80.4362 76.1681 80.4416 76.2641C79.7699 76.5012 79.0817 76.689 78.3881 76.822C78.0015 76.8974 77.7218 77.236 77.7218 77.6295V81.1033C77.7218 81.3322 77.5258 81.5255 77.2968 81.5255H74.0725C73.8436 81.5255 73.653 81.3322 73.653 81.1033V77.6295C73.653 77.236 73.3734 76.896 72.9868 76.822C71.0895 76.4574 69.3142 75.7226 67.7144 74.6368C67.3895 74.4147 66.9481 74.4572 66.6739 74.7355L64.2104 77.1935C64.109 77.2991 63.9815 77.3155 63.9143 77.3155C63.8471 77.3155 63.7238 77.2991 63.6182 77.1935L61.3398 74.9151C61.2329 74.8082 61.2164 74.6821 61.2164 74.6149C61.2164 74.5491 61.2329 74.423 61.3398 74.316L63.7978 71.8594C64.0774 71.5798 64.1172 71.1425 63.8992 70.8162C62.808 69.2123 62.0746 67.4397 61.7099 65.5438C61.6373 65.1572 61.2959 64.8775 60.9039 64.8775H57.4273C57.1984 64.8775 57.0078 64.6829 57.0078 64.4539V61.2324C57.0078 61.0034 57.1984 60.8088 57.4273 60.8088H60.9039C61.2959 60.8088 61.6373 60.5291 61.7099 60.1425C62.0732 58.2466 62.8066 56.4727 63.8924 54.8701C64.1158 54.5425 64.0774 54.1052 63.7978 53.8269L61.3398 51.3703C61.2329 51.2633 61.2164 51.1372 61.2164 51.0714C61.2164 51.0056 61.2329 50.8781 61.3398 50.7726L63.6182 48.4928C63.7251 48.3872 63.8471 48.3708 63.9143 48.3708C63.9815 48.3708 64.1103 48.3872 64.2104 48.4928L66.6739 50.9508C66.9481 51.2291 67.3854 51.2716 67.7144 51.0495C69.3156 49.9637 71.0895 49.2289 72.9868 48.8643C73.3734 48.7903 73.653 48.4517 73.653 48.0568V44.583C73.653 44.3541 73.8436 44.1608 74.0725 44.1608H77.2968C77.5258 44.1608 77.7218 44.3541 77.7218 44.583V48.0568C77.7218 48.4517 78.0015 48.7903 78.3881 48.8643C80.2854 49.2289 82.0538 49.9637 83.6605 51.0508C83.9854 51.2716 84.4213 51.2304 84.701 50.9508L87.1589 48.4928C87.2659 48.3872 87.3934 48.3708 87.4551 48.3708C87.5222 48.3708 87.6511 48.3872 87.758 48.4928L90.0364 50.7726C90.1982 50.9343 90.1982 51.2071 90.0364 51.3703L87.5784 53.8282C87.2988 54.1065 87.2535 54.5438 87.4784 54.8701C88.5641 56.474 89.303 58.248 89.6608 60.1425C89.7389 60.5291 90.0748 60.8088 90.4724 60.8088H93.9434C94.1724 60.8088 94.3684 61.0034 94.3684 61.2324V64.4539C94.3684 64.6829 94.1724 64.8775 93.9434 64.8775H90.4724C90.0748 64.8775 89.7389 65.1572 89.6663 65.5438C89.5319 66.221 89.3524 66.8886 89.1289 67.5384C89.0453 67.537 88.9603 67.5329 88.8767 67.5329C88.087 67.5329 87.3207 67.644 86.5983 67.8482C87.3097 66.295 87.684 64.602 87.684 62.8432C87.684 56.2259 82.3047 50.8425 75.6833 50.8425C69.0688 50.8425 63.684 56.2259 63.684 62.8432ZM65.3743 78.356L67.3607 76.3682C68.8042 77.2593 70.3616 77.905 72.0066 78.2943V81.1033C72.0066 81.5831 72.1739 82.0259 72.4494 82.3768V86.399C72.4494 86.5292 72.3425 86.6389 72.2081 86.6389H37.7332C37.6044 86.6389 37.492 86.5292 37.492 86.399V40.5417C37.492 40.4114 37.6044 40.3004 37.7332 40.3004H44.1311V42.1209C44.1311 43.2204 45.0263 44.1142 46.1244 44.1142H63.8183C64.9205 44.1142 65.8171 43.2204 65.8171 42.1209V40.3004H72.2095C72.3438 40.3004 72.4508 40.4114 72.4508 40.5417V43.3095C72.1766 43.6618 72.008 44.1032 72.008 44.583V47.392C70.3629 47.7813 68.8056 48.427 67.3621 49.3167L65.3757 47.3303C64.9891 46.9409 64.4695 46.7257 63.9143 46.7257C63.3605 46.7257 62.845 46.9409 62.453 47.3303L60.1745 49.6087C59.7825 49.998 59.57 50.5176 59.57 51.0714C59.57 51.6239 59.7825 52.1434 60.1745 52.5328L62.1623 54.5192C61.2726 55.9613 60.6283 57.5187 60.2362 59.1637H57.4259C56.284 59.1637 55.36 60.0918 55.36 61.2324V64.4539C55.36 65.5945 56.284 66.5226 57.4259 66.5226H60.2362C60.6283 68.1663 61.2713 69.7236 62.1623 71.1658L60.1745 73.1535C59.7825 73.5429 59.57 74.0624 59.57 74.6149C59.57 75.1687 59.7825 75.6883 60.1745 76.0776L62.453 78.356C62.845 78.7454 63.3591 78.9606 63.9143 78.9606C64.4668 78.9606 64.9877 78.7454 65.3743 78.356ZM57.9236 80.4H42.3065C41.8473 80.4 41.484 80.7688 41.484 81.2225C41.484 81.6763 41.8473 82.0451 42.3065 82.0451H57.9236C58.3773 82.0451 58.7461 81.6763 58.7461 81.2225C58.7461 80.7688 58.3773 80.4 57.9236 80.4ZM56.1099 75.7061C56.5637 75.7061 56.9324 75.3387 56.9324 74.8836C56.9324 74.4298 56.5637 74.0611 56.1099 74.0611H42.3065C41.8473 74.0611 41.484 74.4298 41.484 74.8836C41.484 75.3387 41.8473 75.7061 42.3065 75.7061H56.1099ZM51.9794 69.3685C52.4332 69.3685 52.802 68.9998 52.802 68.546C52.802 68.0909 52.4332 67.7235 51.9794 67.7235H42.3065C41.8473 67.7235 41.484 68.0909 41.484 68.546C41.484 68.9998 41.8473 69.3685 42.3065 69.3685H51.9794ZM51.9794 63.0296C52.4332 63.0296 52.802 62.6622 52.802 62.2071C52.802 61.7533 52.4332 61.3845 51.9794 61.3845H42.3065C41.8473 61.3845 41.484 61.7533 41.484 62.2071C41.484 62.6622 41.8473 63.0296 42.3065 63.0296H51.9794ZM56.9324 55.8695C56.9324 55.4144 56.5637 55.047 56.1099 55.047H42.3065C41.8473 55.047 41.484 55.4144 41.484 55.8695C41.484 56.3232 41.8473 56.692 42.3065 56.692H56.1099C56.5637 56.692 56.9324 56.3232 56.9324 55.8695ZM57.9236 50.3531C58.3773 50.3531 58.7461 49.9843 58.7461 49.5305C58.7461 49.0768 58.3773 48.708 57.9236 48.708H42.3065C41.8473 48.708 41.484 49.0768 41.484 49.5305C41.484 49.9843 41.8473 50.3531 42.3065 50.3531H57.9236ZM44.1311 38.6553H37.7332C36.6927 38.6553 35.8469 39.5012 35.8469 40.5417V86.399C35.8469 87.4381 36.6927 88.2839 37.7332 88.2839H72.2081C73.2486 88.2839 74.0945 87.4381 74.0945 86.399V83.1706H77.0501V88.0495C77.0501 89.6672 75.734 90.9832 74.1164 90.9832H35.825C34.2073 90.9832 32.8913 89.6672 32.8913 88.0495V38.8911C32.8913 37.2721 34.2073 35.9561 35.825 35.9561H44.1311V38.6553ZM65.8157 35.9561V38.6553H72.2081C73.2486 38.6553 74.0945 39.5012 74.0945 40.5417V42.5157H77.0501V38.8911C77.0501 37.2721 75.734 35.9561 74.1164 35.9561H65.8157ZM48.7099 38.6553H61.2315C61.6853 38.6553 62.054 39.0241 62.054 39.4779C62.054 39.933 61.6853 40.3004 61.2315 40.3004H48.7099C48.2561 40.3004 47.8874 39.933 47.8874 39.4779C47.8874 39.0241 48.2575 38.6553 48.7099 38.6553ZM55.7973 31.7872C55.7973 32.2424 55.4286 32.6098 54.9748 32.6098C54.521 32.6098 54.1523 32.2424 54.1523 31.7872C54.1523 31.3335 54.521 30.9647 54.9748 30.9647C55.4272 30.9647 55.7973 31.3335 55.7973 31.7872Z" fill="white"/>
</svg>
