<svg width="119" height="120" viewBox="0 0 119 120" fill="none" xmlns="http://www.w3.org/2000/svg">
<rect x="5" y="5.28693" width="109" height="109" rx="54.5" fill="#128894"/>
<rect x="5" y="5.28693" width="109" height="109" rx="54.5" stroke="white" stroke-width="10"/>
<path d="M68.8404 75.4938C66.5005 75.4938 64.4999 74.8076 63.0765 73.3842C59.0535 69.3612 60.9066 60.7458 67.4831 52.8986C68.1708 52.08 69.1827 51.5834 70.2609 51.536C71.3503 51.4969 72.4187 51.9024 73.1876 52.6713L73.9655 53.4501C74.2665 53.751 74.2665 54.2393 73.9655 54.5395C73.6646 54.8404 73.1771 54.8404 72.8761 54.5395L72.0981 53.7608C71.6332 53.2966 70.9892 53.0438 70.3278 53.0761C69.671 53.1047 69.0796 53.3929 68.6636 53.8887C62.71 60.9926 60.7765 68.9053 64.1659 72.2947C67.5501 75.6789 75.459 73.7438 82.5644 67.7955C83.0632 67.3765 83.3536 66.7843 83.3822 66.1283C83.4108 65.4684 83.1595 64.8222 82.6916 64.3542L81.9136 63.5762C81.6126 63.2753 81.6126 62.7877 81.9136 62.4868C82.2145 62.1858 82.7021 62.1858 83.003 62.4868L83.781 63.2647C84.5537 64.0374 84.969 65.1051 84.9216 66.1952C84.8749 67.2719 84.3769 68.2853 83.5545 68.976C78.4873 73.2179 73.1018 75.4938 68.8404 75.4938Z" fill="white"/>
<path d="M81.098 64.3685C80.3757 64.3685 79.6979 64.0856 79.1908 63.5732C78.6859 63.0744 78.4038 62.4003 78.4015 61.6818C78.3993 60.9602 78.6807 60.2801 79.1938 59.767C79.6979 59.2576 80.375 58.9755 81.0973 58.9755C81.8203 58.9755 82.4982 59.2576 83.0053 59.7692C83.5154 60.2801 83.7968 60.9602 83.7945 61.6818C83.793 62.3988 83.5116 63.0714 83.003 63.5762C82.4959 64.0871 81.8195 64.3685 81.098 64.3685ZM81.098 60.5163C80.7896 60.5163 80.5014 60.636 80.2862 60.8534C80.0628 61.0768 79.9416 61.3688 79.9424 61.678C79.9431 61.9827 80.0635 62.2694 80.2802 62.4838C80.5014 62.7072 80.7896 62.8276 81.098 62.8276C81.4065 62.8276 81.6947 62.7072 81.9106 62.4898L81.9166 62.4838C82.1333 62.2694 82.2529 61.9827 82.2537 61.678C82.2544 61.3688 82.134 61.0768 81.9136 60.8564C81.6954 60.636 81.4065 60.5163 81.098 60.5163Z" fill="white"/>
<path d="M74.7826 58.0485C74.0927 58.0485 73.4035 57.789 72.8791 57.2698C72.3652 56.756 72.0839 56.0781 72.0839 55.3581C72.0839 54.638 72.3652 53.9602 72.8761 53.4501C73.9309 52.4073 75.6396 52.4073 76.6899 53.447C76.6921 53.4493 76.6936 53.4508 76.6959 53.4531C77.7357 54.5034 77.7357 56.2128 76.6959 57.2638C76.167 57.7875 75.474 58.0485 74.7826 58.0485ZM74.7841 54.2062C74.4869 54.2062 74.1897 54.3183 73.9625 54.5425C73.7458 54.7592 73.6247 55.0496 73.6247 55.3581C73.6247 55.6665 73.7458 55.9577 73.9655 56.1774C74.417 56.6221 75.1535 56.6221 75.6065 56.1744C76.0481 55.7282 76.0489 54.9932 75.6035 54.5395C75.3777 54.3168 75.0813 54.2062 74.7841 54.2062Z" fill="white"/>
<path d="M62.1262 77.2604C61.3528 77.2604 60.62 76.9534 60.0602 76.3951C58.9083 75.2433 58.9083 73.3706 60.0594 72.2195L61.8253 70.4537C62.1262 70.1527 62.6137 70.1527 62.9147 70.4537C63.2156 70.7546 63.2156 71.2421 62.9147 71.5431L61.1489 73.3089C60.8818 73.5768 60.7343 73.9311 60.7343 74.3066C60.7343 74.6827 60.8818 75.0371 61.1489 75.305C61.4167 75.5728 61.7643 75.7195 62.127 75.7195H62.1398C62.5242 75.7165 62.8808 75.569 63.1464 75.3042L64.9115 73.5391C65.2124 73.2382 65.7 73.2382 66.0009 73.5391C66.3019 73.8401 66.3019 74.3276 66.0009 74.6286L64.2351 76.3944C63.6821 76.9466 62.9433 77.2536 62.1533 77.2604C62.1443 77.2604 62.1352 77.2604 62.1262 77.2604Z" fill="white"/>
<path d="M50.3395 81.4097C48.1246 81.4097 46.1248 80.7115 44.6704 79.2572C41.6564 76.2432 41.7858 70.8803 44.9939 65.9131C45.2249 65.555 45.7019 65.4526 46.0586 65.6836C46.4167 65.9146 46.519 66.3909 46.288 66.7482C43.4847 71.0909 43.2718 75.6796 45.7599 78.1677C48.9138 81.3217 55.3285 80.0374 60.0609 75.3065C60.3619 75.0055 60.8494 75.0055 61.1504 75.3065C61.4513 75.6074 61.4513 76.0949 61.1504 76.3959C57.8836 79.6627 53.8426 81.4097 50.3395 81.4097Z" fill="white"/>
<path d="M49.2712 68.6156C47.7559 68.6156 46.2406 68.0385 45.0872 66.8852C42.7805 64.5784 42.7805 60.8248 45.0872 58.518C47.3948 56.212 51.1483 56.2128 53.4544 58.5188C54.5701 59.6346 55.1848 61.1205 55.1848 62.702C55.1848 64.2842 54.5701 65.7694 53.4544 66.8852C52.301 68.0385 50.7857 68.6156 49.2712 68.6156ZM49.2704 58.3284C48.1501 58.3284 47.0299 58.755 46.1767 59.6075C44.4703 61.3138 44.4703 64.0893 46.1767 65.7957C47.8838 67.5029 50.6593 67.5014 52.3649 65.7957C53.1895 64.9711 53.644 63.8727 53.644 62.702C53.644 61.532 53.1895 60.4336 52.3649 59.6082C51.5117 58.755 50.3907 58.3284 49.2704 58.3284Z" fill="white"/>
<path d="M49.2704 65.1871C48.6068 65.1871 47.9824 64.929 47.5129 64.4595C46.5438 63.4905 46.5438 61.9135 47.5129 60.9444C48.4526 60.0047 50.0913 60.0062 51.028 60.9444C51.997 61.9135 51.997 63.4905 51.028 64.4595C50.5592 64.929 49.9348 65.1871 49.2704 65.1871ZM49.2704 61.7577C49.0184 61.7577 48.7806 61.8556 48.6023 62.0339C48.2337 62.4025 48.2337 63.0014 48.6023 63.3701C48.9589 63.7267 49.5819 63.726 49.9385 63.3701C50.3072 63.0014 50.3072 62.4025 49.9385 62.0339C49.7602 61.8556 49.5232 61.7577 49.2704 61.7577Z" fill="white"/>
<path d="M65.1079 84.7111H36.4327C35.1326 84.7111 34.0748 83.654 34.0748 82.3539V41.8214C34.0748 40.5213 35.1326 39.4642 36.4327 39.4642H42.9039C43.3297 39.4642 43.6743 39.8088 43.6743 40.2346C43.6743 40.6605 43.3297 41.0051 42.9039 41.0051H36.4327C35.982 41.0051 35.6156 41.3715 35.6156 41.8214V82.3539C35.6156 82.7963 35.9896 83.1703 36.4327 83.1703H65.1079C65.5503 83.1703 65.9242 82.7963 65.9242 82.3539V74.4879C65.9242 74.062 66.2688 73.7174 66.6946 73.7174C67.1205 73.7174 67.465 74.062 67.465 74.4879V82.3539C67.465 83.654 66.408 84.7111 65.1079 84.7111Z" fill="white"/>
<path d="M66.6946 55.9208C66.2688 55.9208 65.9242 55.5763 65.9242 55.1504V41.8214C65.9242 41.3715 65.5578 41.0051 65.1079 41.0051H58.636C58.2101 41.0051 57.8655 40.6605 57.8655 40.2346C57.8655 39.8088 58.2101 39.4642 58.636 39.4642H65.1079C66.408 39.4642 67.465 40.5213 67.465 41.8214V55.1504C67.465 55.5763 67.1205 55.9208 66.6946 55.9208Z" fill="white"/>
<path d="M57.211 43.4804H44.3273C43.1183 43.4804 42.1342 42.4963 42.1342 41.2872V39.1828C42.1342 37.9738 43.1183 36.9904 44.3273 36.9904H46.9516C47.3097 35.2088 48.8837 33.8628 50.7654 33.8628C52.6508 33.8628 54.2278 35.2088 54.5859 36.9904H57.211C58.42 36.9904 59.4041 37.9738 59.4041 39.1828V41.2872C59.4041 42.4963 58.42 43.4804 57.211 43.4804ZM44.3273 38.5313C43.9677 38.5313 43.675 38.8232 43.675 39.1828V41.2872C43.675 41.6468 43.9677 41.9395 44.3273 41.9395H57.211C57.5706 41.9395 57.8633 41.6468 57.8633 41.2872V39.1828C57.8633 38.8232 57.5706 38.5313 57.211 38.5313H53.8923C53.4664 38.5313 53.1218 38.1867 53.1218 37.7608C53.1218 36.4607 52.0647 35.4037 50.7654 35.4037C49.4706 35.4037 48.4165 36.4607 48.4165 37.7608C48.4165 38.1867 48.0719 38.5313 47.6461 38.5313H44.3273Z" fill="white"/>
<path d="M50.7699 47.6387H39.0058C38.58 47.6387 38.2354 47.2941 38.2354 46.8683C38.2354 46.4425 38.58 46.0979 39.0058 46.0979H50.7699C51.1957 46.0979 51.5403 46.4425 51.5403 46.8683C51.5403 47.2941 51.1957 47.6387 50.7699 47.6387Z" fill="white"/>
<path d="M62.5347 51.0831H39.0058C38.58 51.0831 38.2354 50.7385 38.2354 50.3127C38.2354 49.8868 38.58 49.5422 39.0058 49.5422H62.5347C62.9606 49.5422 63.3052 49.8868 63.3052 50.3127C63.3052 50.7385 62.9606 51.0831 62.5347 51.0831Z" fill="white"/>
<path d="M62.5347 54.5274H39.0058C38.58 54.5274 38.2354 54.1829 38.2354 53.757C38.2354 53.3312 38.58 52.9866 39.0058 52.9866H62.5347C62.9606 52.9866 63.3052 53.3312 63.3052 53.757C63.3052 54.1829 62.9606 54.5274 62.5347 54.5274Z" fill="white"/>
</svg>
