<svg width="120" height="121" viewBox="0 0 120 121" fill="none" xmlns="http://www.w3.org/2000/svg">
<rect x="5" y="5.75171" width="110" height="110" rx="55" fill="#00B2AE"/>
<rect x="5" y="5.75171" width="110" height="110" rx="55" stroke="white" stroke-width="10"/>
<path d="M84.7183 35.7517H32.8979C30.9182 35.7517 29.3081 37.3436 29.3081 39.3009V74.9108C29.3081 76.8681 30.9182 78.46 32.8979 78.46H51.4331V83.6684H38.7902C38.2079 83.6684 37.7367 84.1348 37.7367 84.71C37.7367 85.2853 38.2079 85.7517 38.7902 85.7517H78.826C79.4083 85.7517 79.8795 85.2853 79.8795 84.71C79.8795 84.1348 79.4083 83.6684 78.826 83.6684H66.1831V78.46H84.7183C86.698 78.46 88.3081 76.8681 88.3081 74.9108V39.3009C88.3081 37.3436 86.698 35.7517 84.7183 35.7517ZM31.4152 39.3009C31.4152 38.4926 32.0798 37.835 32.8979 37.835H84.7183C85.5362 37.835 86.201 38.4926 86.201 39.3009V69.085H31.4152V54.5017H34.012L35.8063 57.1629C36.0244 57.4884 36.4134 57.6613 36.8032 57.6202C37.1962 57.5754 37.5307 57.3171 37.6695 56.9509L39.7848 51.3728L40.9517 54.8314C41.0947 55.2567 41.4969 55.5434 41.9507 55.5434H44.3984L46.2401 60.097C46.4005 60.4936 46.7895 60.7517 47.2186 60.7517C47.238 60.7517 47.2586 60.7512 47.2783 60.7501C47.7311 60.7241 48.1159 60.416 48.2353 59.9843L50.4802 51.8452L51.4874 54.8314C51.6304 55.2567 52.0326 55.5434 52.4864 55.5434H54.9341L56.7758 60.097C56.9404 60.5025 57.3479 60.7751 57.7851 60.7512C58.2276 60.7384 58.6143 60.4541 58.7533 60.0397L61.6743 51.3767H63.0224C63.6048 51.3767 64.076 50.9103 64.076 50.335C64.076 49.7598 63.6048 49.2934 63.0224 49.2934H60.9152C60.4614 49.2934 60.0592 49.5804 59.9162 50.0054L57.665 56.6827L56.6259 54.1147C56.4655 53.7194 56.0786 53.46 55.6474 53.46H53.246L51.3786 47.922C51.2324 47.4871 50.8168 47.2054 50.3508 47.2106C49.8867 47.2233 49.4856 47.5345 49.3631 47.9775L47.0297 56.4374L46.0904 54.1145C45.93 53.7192 45.5431 53.4598 45.1119 53.4598H42.7106L40.8431 47.9218C40.7022 47.5033 40.3103 47.2179 39.8636 47.2098C39.4242 47.2215 39.0136 47.4728 38.8574 47.8858L36.4189 54.315L35.4528 52.8822C35.2574 52.5923 34.9281 52.4184 34.5762 52.4184H31.4152V39.3009ZM75.6652 75.335C74.7937 75.335 74.0849 74.6343 74.0849 73.7725C74.0849 72.9108 74.7937 72.21 75.6652 72.21C76.5368 72.21 77.2456 72.9108 77.2456 73.7725C77.2456 74.6343 76.5368 75.335 75.6652 75.335ZM73.0927 76.3767H43.9967C44.6826 75.7142 45.1117 74.7931 45.1117 73.7725C45.1117 72.752 44.6826 71.8309 43.9967 71.1684H73.0927C72.4068 71.8309 71.9777 72.752 71.9777 73.7725C71.9777 74.7931 72.4068 75.7142 73.0927 76.3767ZM41.4242 72.21C42.2957 72.21 43.0045 72.9108 43.0045 73.7725C43.0045 74.6343 42.2957 75.335 41.4242 75.335C40.5526 75.335 39.8438 74.6343 39.8438 73.7725C39.8438 72.9108 40.5526 72.21 41.4242 72.21ZM31.4152 74.9108V71.1684H38.8516C38.1657 71.8309 37.7367 72.752 37.7367 73.7725C37.7367 74.7931 38.1657 75.7142 38.8516 76.3767H32.8979C32.0798 76.3767 31.4152 75.7189 31.4152 74.9108ZM64.076 83.6684H53.5402V78.46H64.076V83.6684ZM84.7183 76.3767H78.2378C78.9237 75.7142 79.3527 74.7931 79.3527 73.7725C79.3527 72.752 78.9237 71.8309 78.2378 71.1684H86.201V74.9108C86.201 75.7189 85.5364 76.3767 84.7183 76.3767Z" fill="white"/>
<path d="M65.9795 58.4028C67.6204 62.515 70.7153 64.5642 73.0642 65.1111C73.5613 65.2265 74.0417 65.2835 74.5016 65.2835C75.6447 65.2835 76.654 64.9306 77.4258 64.2449C80.6255 61.4007 82.1545 58.5056 81.9725 55.641C81.767 52.4311 79.4842 50.3327 78.2375 49.4137L78.2304 48.9957C78.2099 48.7757 78.1751 48.5194 78.1319 48.2517H79.8795C80.4619 48.2517 80.9331 47.7853 80.9331 47.21C80.9331 46.6348 80.4619 46.1684 79.8795 46.1684H77.5301C77.1832 45.3869 76.6833 44.652 75.9336 44.1679C74.9314 43.5205 73.7185 43.4246 72.3254 43.883C71.7054 44.0874 71.176 44.3645 70.7108 44.6856C69.9365 44.0337 69.1157 43.4751 68.3838 43.0371C67.8846 42.7387 67.2367 42.8962 66.9372 43.3892C66.6356 43.8811 66.7952 44.522 67.2933 44.8194C68.025 45.2572 68.6711 45.7119 69.2303 46.1712C68.4451 47.3163 68.0961 48.6595 68.0003 49.8806C67.2794 50.5957 64.2145 53.9856 65.9795 58.4028ZM72.9923 45.8595C73.7557 45.6077 74.3401 45.6257 74.7816 45.9119C75.4782 46.3616 75.9832 47.5858 76.1272 49.1074L76.1736 51.9869C76.1828 52.5611 76.6951 53.0184 77.2435 53.0119C77.7324 53.0041 78.1195 52.6624 78.2315 52.2147C79.0177 53.0757 79.7731 54.2686 79.869 55.7723C80.0089 57.9692 78.7124 60.2986 76.0158 62.6957C75.4622 63.1871 74.5856 63.3244 73.5476 63.0832C71.8005 62.6767 69.2838 61.0064 67.9381 57.6379C67.139 55.6369 67.7332 53.8955 68.4193 52.7416C68.7359 53.0814 69.5293 53.7077 71.1122 53.7077C71.9035 53.7077 72.8891 53.5501 74.1062 53.1202C74.6546 52.9265 74.9407 52.3304 74.7442 51.7887C74.5487 51.2475 73.9437 50.9632 73.3985 51.158C71.3427 51.8837 70.4219 51.5999 70.1245 51.4551C70.0442 50.7546 69.9649 49.0827 70.7345 47.6986C70.9861 48.035 71.1834 48.3679 71.3172 48.6923C71.4828 49.0968 71.8769 49.3418 72.2925 49.3418C72.4253 49.3418 72.5601 49.3168 72.6897 49.2645C73.2289 49.0478 73.488 48.44 73.2678 47.9069C73.0184 47.3012 72.6505 46.7356 72.2217 46.2059C72.4558 46.0744 72.706 45.9538 72.9923 45.8595Z" fill="white"/>
<path d="M39.8438 42.0017C39.8438 40.2785 38.426 38.8767 36.6831 38.8767C34.9402 38.8767 33.5224 40.2785 33.5224 42.0017C33.5224 43.7249 34.9402 45.1267 36.6831 45.1267C38.426 45.1267 39.8438 43.7249 39.8438 42.0017ZM35.6295 42.0017C35.6295 41.4275 36.1018 40.96 36.6831 40.96C37.2644 40.96 37.7367 41.4275 37.7367 42.0017C37.7367 42.5759 37.2644 43.0434 36.6831 43.0434C36.1018 43.0434 35.6295 42.5759 35.6295 42.0017Z" fill="white"/>
<path d="M41.951 43.0434H46.1652C46.7476 43.0434 47.2188 42.577 47.2188 42.0017C47.2188 41.4264 46.7476 40.96 46.1652 40.96H41.951C41.3686 40.96 40.8974 41.4264 40.8974 42.0017C40.8974 42.577 41.3686 43.0434 41.951 43.0434Z" fill="white"/>
<path d="M49.326 43.0434H56.701C57.2833 43.0434 57.7545 42.577 57.7545 42.0017C57.7545 41.4264 57.2833 40.96 56.701 40.96H49.326C48.7436 40.96 48.2724 41.4264 48.2724 42.0017C48.2724 42.577 48.7436 43.0434 49.326 43.0434Z" fill="white"/>
<path d="M36.6831 64.9184H40.8974C41.4798 64.9184 41.951 64.452 41.951 63.8767C41.951 63.3015 41.4798 62.835 40.8974 62.835H36.6831C36.1007 62.835 35.6295 63.3015 35.6295 63.8767C35.6295 64.452 36.1007 64.9184 36.6831 64.9184Z" fill="white"/>
<path d="M49.326 65.96H36.6831C36.1007 65.96 35.6295 66.4265 35.6295 67.0017C35.6295 67.577 36.1007 68.0434 36.6831 68.0434H49.326C49.9083 68.0434 50.3795 67.577 50.3795 67.0017C50.3795 66.4265 49.9083 65.96 49.326 65.96Z" fill="white"/>
<path d="M60.9152 73.2517H56.701C56.1186 73.2517 55.6474 73.7181 55.6474 74.2934C55.6474 74.8686 56.1186 75.335 56.701 75.335H60.9152C61.4976 75.335 61.9688 74.8686 61.9688 74.2934C61.9688 73.7181 61.4976 73.2517 60.9152 73.2517Z" fill="white"/>
</svg>
