<svg width="197" height="81" viewBox="0 0 197 81" fill="none" xmlns="http://www.w3.org/2000/svg">
<g id="Layer_1" clip-path="url(#clip0_30_1161)">
<g id="Group">
<path id="Vector" d="M15.7169 50.8907C16.7834 49.1021 18.4732 45.668 19.5986 42.489C21.0356 38.4331 23.3348 33.0951 26.1256 30.6986C26.4027 30.461 26.7385 30.2165 27.1125 29.9719H9.60193C8.19609 29.9719 7.05688 31.1213 7.05688 32.5396V53.1754H14.5916L15.7135 50.8907H15.7169Z" fill="#9DD8DE"/>
<path id="Vector_2" d="M74.4398 24.068H63.0547C62.9993 24.068 62.9473 24.0994 62.9196 24.1483L61.261 27.2854C60.011 29.3256 58.1758 33.0077 56.8739 36.6828C55.1391 41.5806 53.1619 45.3116 51.583 46.6671C50.1563 47.8898 45.416 49.8461 43.1099 50.7055L43.0129 50.7265C42.8744 50.7335 42.7047 50.7265 42.5524 50.7055L41.8114 50.6182L42.3931 50.1466C43.0856 49.5806 44.4049 48.7177 45.3675 48.0889C48.5705 45.9929 50.7242 44.5081 51.5726 42.9291C53.1307 40.0295 52.3586 33.1544 51.7353 32.9693C49.211 32.2182 45.2706 39.7466 43.4838 37.7972C43.148 37.4304 52.8156 27.2819 56.2817 23.792C56.95 23.1177 57.3898 22.6915 57.4798 22.6322V6.96404C57.4798 3.45312 54.6578 0.605957 51.1778 0.605957H29.5502C26.0702 0.605957 23.2482 3.45312 23.2482 6.96404V23.9143C23.2482 23.9981 23.1789 24.068 23.0958 24.068H6.30201C2.82205 24.068 0 26.9151 0 30.426V50.7824C0 54.2933 2.82205 57.1405 6.30201 57.1405H17.6872C17.7426 57.1405 17.7945 57.109 17.8222 57.0601L19.4808 53.923C20.7308 51.8828 22.566 48.2007 23.868 44.5256C25.6028 39.6278 27.5799 35.8968 29.1589 34.5413C30.5855 33.3186 35.3259 31.3623 37.632 30.5029L37.7289 30.4819C37.8674 30.475 38.0371 30.4819 38.1895 30.5029L38.9305 30.5902L38.3487 31.0619C37.6562 31.6278 36.3369 32.4907 35.3743 33.1195C32.1714 35.2156 30.0176 36.7003 29.1693 38.2793C27.6111 41.1789 28.3833 48.054 29.0065 48.2391C31.5308 48.9902 35.4713 41.4618 37.258 43.4112C37.5939 43.778 27.9262 53.9265 24.4601 57.4164C23.7918 58.0907 23.352 58.5169 23.262 58.5763V74.2444C23.262 77.7553 26.0841 80.6025 29.564 80.6025H51.1917C54.6716 80.6025 57.4937 77.7553 57.4937 74.2444V57.2942C57.4937 57.2103 57.5629 57.1405 57.646 57.1405H74.4468C77.9267 57.1405 80.7488 54.2933 80.7488 50.7824V30.426C80.7488 26.9151 77.9267 24.068 74.4468 24.068H74.4398ZM76.8083 50.7824C76.8083 52.1029 75.7487 53.1719 74.4398 53.1719H53.7056C53.6224 53.1719 53.5532 53.2418 53.5532 53.3256V74.2444C53.5532 75.5649 52.4936 76.6339 51.1847 76.6339H29.5571C28.2482 76.6339 27.1886 75.5649 27.1886 74.2444V59.3798L27.2718 59.2889C29.6194 56.7492 37.3688 48.3509 38.4907 46.8383C39.4949 45.4898 41.0115 43.4496 39.0759 41.5003C37.7843 40.1972 36.1465 40.5012 35.3813 40.8889L31.2503 43.806L31.2711 43.1736C31.323 41.6295 31.5412 40.4907 31.9186 39.7885C32.4068 38.8802 34.7234 37.3151 37.0537 35.7885C40.1943 33.7343 41.5863 32.7736 41.7664 31.4391C41.9776 29.8811 41.3959 28.9274 40.873 28.4033C39.5572 27.0828 38.2275 27.1597 37.8293 27.2191L36.9256 27.3867L36.7732 27.4426C36.0218 27.7186 29.3597 30.206 27.1194 32.1274C24.5051 34.3701 22.2994 39.5265 20.9074 43.4566C19.4877 47.4671 17.2613 51.7431 16.2883 53.0461L16.1948 53.1719H6.30201C4.99313 53.1719 3.93356 52.1029 3.93356 50.7824V30.426C3.93356 29.1055 4.99313 28.0365 6.30201 28.0365H27.0363C27.1194 28.0365 27.1886 27.9667 27.1886 27.8828V6.96404C27.1886 5.64351 28.2482 4.57452 29.5571 4.57452H51.1847C52.4936 4.57452 53.5532 5.64351 53.5532 6.96404V21.8287L53.4701 21.9195C51.1224 24.4592 43.373 32.8575 42.2511 34.3701C41.247 35.7186 39.7303 37.7588 41.6659 39.7081C42.9575 41.0112 44.5953 40.7073 45.3606 40.3195L49.4915 37.4025L49.4707 38.0348C49.4188 39.5789 49.2007 40.7177 48.8232 41.4199C48.335 42.3282 46.0185 43.8933 43.6881 45.4199C40.5475 47.4741 39.1555 48.4348 38.9755 49.7693C38.7643 51.3274 39.3945 52.2356 39.8688 52.8051C41.1639 54.3562 44.0482 53.7343 44.0482 53.7343C44.0482 53.7343 51.3821 51.0025 53.6259 49.0811C56.2402 46.8383 58.4459 41.6819 59.8379 37.7518C61.2576 33.7413 63.484 29.4653 64.457 28.1623L64.5505 28.0365H74.4433C75.7522 28.0365 76.8117 29.1055 76.8117 30.426V50.7824H76.8083Z" fill="white"/>
<path id="Vector_3" d="M44.3495 76.6374H51.1848C52.4936 76.6374 53.5532 75.5684 53.5532 74.2479V53.3291C53.5532 53.2453 53.6225 53.1754 53.7056 53.1754H74.4399C75.7487 53.1754 76.8083 52.1064 76.8083 50.7859V30.4296C76.8083 30.3352 76.791 30.2444 76.7806 30.1536C76.4101 30.0383 76.0223 29.9719 75.6137 29.9719H65.3712L65.1392 30.447C64.0727 32.2357 62.3829 35.6697 61.2576 38.8488C59.8206 42.9047 58.0269 48.2112 55.2326 50.6077C52.8953 52.613 44.2179 55.6488 44.2179 55.6488C41.1847 56.6584 40.6099 53.9649 39.9831 52.9309C39.9416 52.889 39.9 52.8505 39.8619 52.8086C39.81 52.7492 39.7581 52.6794 39.7061 52.613C39.6853 52.599 39.668 52.5815 39.6472 52.5711H39.6749C39.2387 51.9981 38.7851 51.1353 38.9686 49.7728C39.1486 48.4418 40.5441 47.4776 43.6812 45.4235C46.0116 43.9003 48.3281 42.3352 48.8163 41.4235C49.1937 40.7213 49.4084 39.5824 49.4638 38.0383L49.4846 37.406L45.3537 40.323C44.5884 40.7073 42.9506 41.0112 41.659 39.7117C39.7269 37.7623 41.2435 35.7221 42.2442 34.3737C43.3661 32.861 51.1155 24.4628 53.4632 21.923L53.5463 21.8322V7.3728H31.8736C30.537 7.3728 29.4498 8.46625 29.4498 9.81822V28.6549C32.1299 27.3099 34.8792 25.6191 37.5385 25.6261C39.6161 25.6296 40.1736 27.3763 40.7345 28.2776C40.7795 28.3195 40.8245 28.358 40.8696 28.4034C40.9665 28.4977 41.06 28.613 41.1535 28.7387C41.1673 28.7457 41.1812 28.7597 41.1985 28.7667H41.1708C41.5863 29.3256 41.9326 30.1815 41.7629 31.4392C41.5829 32.7702 40.1874 33.7344 37.0503 35.7885C34.7199 37.3117 32.4034 38.8767 31.9152 39.7885C31.5377 40.4907 31.3231 41.6296 31.2677 43.1737L31.2469 43.806L35.3778 40.889C36.1431 40.5047 37.7809 40.2008 39.0724 41.5003C41.0046 43.4497 39.488 45.4898 38.4873 46.8383C37.5108 48.1483 31.5516 54.6497 28.456 58.0034H29.4532V76.6235C29.4879 76.6235 29.519 76.6339 29.5537 76.6339H44.3461L44.3495 76.6374Z" fill="#9DD8DE"/>
</g>
<g id="Group_2">
<path id="Vector_4" d="M96.2614 36.2427C94.4643 35.2471 93.0585 33.8637 92.037 32.096C91.0121 30.3283 90.5031 28.3475 90.5031 26.1536C90.5031 23.9597 91.0121 21.9824 92.037 20.2148C93.0585 18.4471 94.4712 17.0637 96.2787 16.0645C98.0862 15.0654 100.105 14.5693 102.345 14.5693C104.025 14.5693 105.569 14.8488 106.989 15.4148C108.408 15.9807 109.613 16.8051 110.6 17.8881L109.087 19.4182C107.321 17.6156 105.095 16.7178 102.408 16.7178C100.621 16.7178 99.0004 17.13 97.5357 17.9545C96.0744 18.7789 94.9248 19.9073 94.0973 21.3396C93.2697 22.7685 92.8542 24.3789 92.8542 26.1536C92.8542 27.9283 93.2697 29.5388 94.0973 30.9711C94.9248 32.3999 96.071 33.5318 97.5357 34.3562C98.9969 35.1807 100.621 35.5929 102.408 35.5929C105.115 35.5929 107.342 34.6811 109.087 32.861L110.6 34.3877C109.613 35.4741 108.401 36.3021 106.971 36.8785C105.541 37.4549 103.987 37.7414 102.307 37.7414C100.07 37.7414 98.0551 37.2418 96.258 36.2427H96.2614Z" fill="white"/>
<path id="Vector_5" d="M131.992 35.4637V37.5458H116.023V14.7615H131.508V16.8471H118.408V24.9519H130.088V27.0025H118.408V35.4672H131.989L131.992 35.4637Z" fill="white"/>
<path id="Vector_6" d="M153.156 16.8471C154.79 18.234 155.608 20.1449 155.608 22.5763C155.608 25.0078 154.787 26.9082 153.156 28.2881C151.522 29.6645 149.264 30.3527 146.38 30.3527H140.313V37.5458H137.927V14.7615H146.38C149.264 14.7615 151.522 15.4567 153.156 16.8471ZM151.446 26.758C152.626 25.7693 153.218 24.3754 153.218 22.5763C153.218 20.7772 152.626 19.3169 151.446 18.3283C150.261 17.3396 148.551 16.8471 146.314 16.8471H140.313V28.2392H146.314C148.551 28.2392 150.261 27.7431 151.446 26.758Z" fill="white"/>
<path id="Vector_7" d="M174.126 31.4602H161.546L158.838 37.5458H156.356L166.678 14.7615H169.032L179.354 37.5458H176.837L174.129 31.4602H174.126ZM173.253 29.5073L167.834 17.2698L162.415 29.5073H173.253Z" fill="white"/>
<path id="Vector_8" d="M186.674 16.8471H178.738V14.7615H196.997V16.8471H189.06V37.5492H186.674V16.8471Z" fill="white"/>
</g>
<g id="Group_3">
<path id="Vector_9" d="M93.6436 67.3728C92.0301 66.9011 90.735 66.2863 89.7551 65.5282L91.4726 61.6854C92.4109 62.3771 93.5225 62.9326 94.814 63.3553C96.1056 63.7745 97.3937 63.9876 98.6852 63.9876C100.122 63.9876 101.185 63.771 101.871 63.3413C102.556 62.9116 102.899 62.3387 102.899 61.6225C102.899 61.0985 102.695 60.6618 102.293 60.316C101.888 59.9701 101.365 59.6942 100.732 59.4811C100.098 59.2714 99.2358 59.0409 98.1555 58.7859C96.4899 58.3876 95.1257 57.9893 94.0626 57.5911C92.9996 57.1893 92.0889 56.55 91.3306 55.6697C90.5688 54.7893 90.1879 53.6121 90.1879 52.1413C90.1879 50.8592 90.5307 49.6994 91.2198 48.6583C91.9054 47.6173 92.9407 46.7928 94.3258 46.185C95.7108 45.5771 97.4041 45.2732 99.402 45.2732C100.797 45.2732 102.158 45.4409 103.495 45.7797C104.828 46.1151 105.995 46.5972 106.992 47.2295L105.43 51.1038C103.408 49.9509 101.39 49.371 99.3709 49.371C97.9546 49.371 96.9089 49.6051 96.2337 50.0662C95.5585 50.5273 95.2157 51.1387 95.2157 51.8933C95.2157 52.6479 95.607 53.2138 96.3861 53.5806C97.1651 53.9474 98.3598 54.3107 99.963 54.6671C101.628 55.0653 102.993 55.4636 104.056 55.8653C105.119 56.2636 106.03 56.8924 106.788 57.7553C107.546 58.6182 107.931 59.785 107.931 61.2522C107.931 62.5099 107.581 63.6627 106.885 64.7003C106.185 65.7413 105.14 66.5658 103.748 67.1736C102.352 67.785 100.655 68.0854 98.6576 68.0854C96.9297 68.0854 95.2607 67.8479 93.6471 67.3763L93.6436 67.3728Z" fill="white"/>
<path id="Vector_10" d="M128.325 63.6069V67.7012H111.4V45.6436H127.92V49.7414H116.428V54.5309H126.58V58.4995H116.428V63.6034H128.325V63.6069Z" fill="white"/>
<path id="Vector_11" d="M152.405 45.647V67.7046H147.346V58.6601H137.415V67.7046H132.356V45.647H137.415V54.3457H147.346V45.647H152.405Z" fill="white"/>
<path id="Vector_12" d="M171.982 62.978H161.83L159.894 67.7046H154.711L164.455 45.647H169.451L179.226 67.7046H173.918L171.982 62.978ZM170.39 59.1003L166.923 50.6566L163.457 59.1003H170.39Z" fill="white"/>
<path id="Vector_13" d="M184.947 49.8043H177.949V45.6436H197V49.8043H190.002V67.7012H184.943V49.8043H184.947Z" fill="white"/>
</g>
</g>
<defs>
<clipPath id="clip0_30_1161">
<rect width="197" height="80" fill="white" transform="translate(0 0.605957)"/>
</clipPath>
</defs>
</svg>
