<svg width="120" height="119" viewBox="0 0 120 119" fill="none" xmlns="http://www.w3.org/2000/svg">
<path d="M53.0909 4.48376C57.4447 1.97011 62.8088 1.97011 67.1626 4.48377L104.332 25.9437C108.686 28.4574 111.368 33.1028 111.368 38.1301V81.05C111.368 86.0774 108.686 90.7228 104.332 93.2364L67.1626 114.696C62.8088 117.21 57.4447 117.21 53.0909 114.696L15.9212 93.2364C11.5674 90.7228 8.88538 86.0774 8.88538 81.05V38.1301C8.88538 33.1028 11.5674 28.4574 15.9212 25.9437L53.0909 4.48376Z" fill="#00B2AE"/>
<path fill-rule="evenodd" clip-rule="evenodd" d="M48.0796 34.985H36.453V31.4849C36.453 30.1452 37.5457 29.05 38.8878 29.05H81.3609C82.7006 29.05 83.7958 30.1452 83.7958 31.4849V43.1891H61.38C61.2619 43.1891 61.207 43.1724 61.1127 43.1044L50.6027 35.776C49.8452 35.2487 49.003 34.985 48.0796 34.985ZM85.6699 45.1598H61.38C60.8586 45.1598 60.4125 45.0179 59.983 44.7196L49.4766 37.3913C49.0471 37.0942 48.6009 36.9546 48.0796 36.9546H34.58C33.2379 36.9546 32.1416 38.0498 32.1416 39.393V73.4295C32.1416 74.7692 33.2367 75.8644 34.58 75.8644H42.8318C41.0972 71.7629 39.9841 67.2547 39.2612 62.6964C39.1491 62.0069 39.3328 61.3138 39.7718 60.7686C40.2084 60.221 40.8467 59.8929 41.5469 59.8488C45.0769 59.6353 47.8971 56.7912 48.0808 53.2577C48.1488 51.949 49.2308 50.9207 50.5395 50.9207H69.7104C71.0227 50.9207 72.1047 51.949 72.1727 53.2577C72.3552 56.7912 75.1754 59.6353 78.7066 59.8488C79.4068 59.8929 80.0427 60.221 80.4817 60.7686C80.9219 61.3126 81.1044 62.0069 80.9923 62.6964C80.2682 67.2547 79.1563 71.7629 77.4217 75.8644H85.6735C87.0156 75.8644 88.1119 74.7692 88.1119 73.4295V47.5947C88.1083 46.2526 87.012 45.1598 85.6699 45.1598ZM79.0454 62.3862C76.3564 79.2905 69.4146 87.052 60.2812 90.1024C60.1763 90.1393 60.0749 90.1393 59.9699 90.1024C50.8353 87.052 43.8935 79.2905 41.2045 62.3862C41.1843 62.2443 41.2177 62.1119 41.3095 62.0009C41.3978 61.8888 41.5195 61.8279 41.665 61.8184C46.1935 61.5476 49.8142 57.9019 50.048 53.3615C50.0611 53.1014 50.2782 52.895 50.5383 52.895H69.7092C69.9729 52.895 70.19 53.1014 70.2031 53.3615C70.4369 57.9031 74.0576 61.5488 78.5861 61.8184C78.7316 61.8279 78.8533 61.89 78.9416 62.0009C79.0311 62.1154 79.0656 62.2443 79.0454 62.3862ZM74.9094 64.3916C71.3555 63.0865 68.5723 60.1781 67.439 56.5467C67.3746 56.3367 67.1885 56.1983 66.969 56.1983H53.2809C53.0614 56.1983 52.8753 56.3367 52.8109 56.5467C51.6776 60.1781 48.8944 63.0865 45.3406 64.3916C45.1103 64.4763 44.9791 64.7125 45.0292 64.9535C46.0814 70.063 47.816 75.2941 50.8019 79.4408C53.2058 82.7788 56.2096 85.1217 59.946 86.5831C60.0641 86.6308 60.1858 86.6308 60.3039 86.5831C64.0403 85.1217 67.043 82.7788 69.448 79.4408C72.4304 75.2953 74.1685 70.0642 75.2207 64.9535C75.2708 64.7125 75.1396 64.4763 74.9094 64.3916ZM67.1455 69.0442V76.5586C67.1455 77.3567 66.493 78.0093 65.6949 78.0093H54.5562C53.7581 78.0093 53.1056 77.3567 53.1056 76.5586V69.0442C53.1056 68.2461 53.7581 67.5935 54.5562 67.5935H54.5872V64.9046C54.5872 64.1602 54.7363 63.4432 55.0095 62.7906C55.2899 62.1107 55.7026 61.4987 56.2097 60.9917C56.7202 60.4811 57.3286 60.0683 58.0122 59.788C58.6648 59.5136 59.3817 59.3657 60.1262 59.3657C60.8706 59.3657 61.5875 59.5148 62.2401 59.788C62.9237 60.0683 63.5321 60.4811 64.0427 60.9917C64.5497 61.4987 64.9624 62.1107 65.2428 62.7906C65.5172 63.4432 65.6651 64.1602 65.6651 64.9046V67.5935H65.6961C66.493 67.5935 67.1455 68.2461 67.1455 69.0442ZM61.6233 71.6997C61.6233 70.8742 60.9541 70.2013 60.125 70.2013C59.2958 70.2013 58.6266 70.8742 58.6266 71.6997C58.6266 72.1602 58.833 72.5694 59.1539 72.8426C59.1443 72.8998 59.1408 72.9607 59.1408 73.0251V74.4149C59.1408 74.9589 59.581 75.4027 60.125 75.4027C60.6689 75.4027 61.1092 74.9601 61.1092 74.4149V73.0251C61.1092 72.9607 61.1056 72.8998 61.0924 72.8426C61.4169 72.5682 61.6233 72.159 61.6233 71.6997ZM63.6955 64.9058C63.6955 64.4226 63.5977 63.9621 63.4247 63.5458C63.2458 63.1092 62.9785 62.7179 62.6433 62.3862C62.3117 62.051 61.9192 61.7838 61.4837 61.6048C61.0674 61.4319 60.6081 61.3376 60.1238 61.3376C59.6406 61.3376 59.1801 61.4319 58.7638 61.6048C58.3272 61.7838 57.9359 62.051 57.6042 62.3862C57.269 62.7179 57.0018 63.1104 56.8228 63.5458C56.6499 63.9621 56.552 64.4214 56.552 64.9058V67.5947H63.6943V64.9058H63.6955Z" fill="white"/>
</svg>
