<svg width="121" height="121" viewBox="0 0 121 121" fill="none" xmlns="http://www.w3.org/2000/svg">
<rect x="5.7608" y="5.74805" width="110" height="110" rx="55" fill="#00B2AE"/>
<rect x="5.7608" y="5.74805" width="110" height="110" rx="55" stroke="white" stroke-width="10"/>
<path d="M81.6375 73.3508H83.2814V74.9946H81.6375V73.3508Z" fill="white"/>
<path d="M81.6375 76.6385H83.2814V78.2823H81.6375V76.6385Z" fill="white"/>
<path d="M88.7608 57.6796C88.7608 56.2595 87.6055 55.1042 86.1855 55.1042H83.2814V44.0905C83.2814 41.8244 81.4378 39.9809 79.1718 39.9809H71.0342C70.6524 38.1074 68.992 36.6933 67.0074 36.6933C66.9586 36.6933 66.9103 36.6952 66.8618 36.697C65.5929 33.4537 63.817 32.748 62.5142 32.748C59.7257 32.748 58.2514 36.1028 56.7608 39.7964V35.9644L56.6359 35.7645C56.5701 35.6592 54.9726 33.1864 50.4594 33.1864C45.9462 33.1864 44.3487 35.6592 44.283 35.7645L44.1581 35.9644V39.7964C42.6674 36.1028 41.1931 32.748 38.4046 32.748C34.2638 32.748 32.7608 39.5967 32.7608 44.2001C32.7608 45.1043 32.8035 46.0502 32.8878 47.0116L34.5253 46.868C34.4453 45.9543 34.4046 45.0565 34.4046 44.2001C34.4046 40.0881 35.7947 34.3919 38.4046 34.3919C40.2137 34.3919 41.5508 37.7175 42.8439 40.9336C43.2594 41.9671 43.6886 43.0342 44.1581 44.0569V44.0905H44.1735C45.6221 47.2373 47.4563 49.9535 50.4594 49.9535C53.4626 49.9535 55.2968 47.2373 56.7453 44.0905H56.7608V44.0569C57.2303 43.0342 57.6594 41.9671 58.075 40.9336C59.368 37.7175 60.7051 34.3919 62.5142 34.3919C63.8029 34.3919 64.6843 35.7257 65.2487 37.0894C63.8602 37.7497 62.8978 39.1658 62.8978 40.8028C62.8978 42.8991 64.4757 44.6324 66.5059 44.8808C66.4239 48.2903 65.7382 52.0896 64.6751 54.9554C63.9257 56.9754 62.2925 60.3645 59.7745 60.3645C58.5778 60.3645 57.5394 59.3304 56.3372 58.1331C54.8086 56.6106 53.0759 54.885 50.4594 54.885C47.843 54.885 46.1103 56.6106 44.5816 58.1331C43.3794 59.3304 42.3411 60.3645 41.1444 60.3645C37.7827 60.3645 35.4865 54.3934 34.7022 48.4757L33.0726 48.6917C33.9258 55.1293 36.4944 62.0083 41.1444 62.0083C42.3013 62.0083 43.2708 61.4838 44.1581 60.7694V74.5728L44.283 74.7727C44.3487 74.8779 45.9462 77.3508 50.4594 77.3508C54.9726 77.3508 56.5701 74.878 56.6359 74.7727L56.7608 74.5728V65.8987H55.117V67.483C54.7251 67.9324 53.404 69.1316 50.4594 69.1316C47.5069 69.1316 46.1866 67.9258 45.8019 67.4843V63.0122C46.7772 63.6215 48.2764 64.2001 50.4594 64.2001C52.6424 64.2001 54.1416 63.6215 55.117 63.0122V64.2549H56.7608V60.7694C57.648 61.4838 58.6176 62.0083 59.7745 62.0083C62.4159 62.0083 64.6434 59.7671 66.2164 55.527C67.3562 52.4545 68.0846 48.3752 68.1524 44.7489C69.6053 44.3267 70.7289 43.1232 71.0342 41.6248H79.1718C80.5314 41.6248 81.6375 42.7308 81.6375 44.0905V55.1042H78.7334C77.3134 55.1042 76.1581 56.2595 76.1581 57.6796C76.1581 58.9693 77.111 60.0404 78.3498 60.2262V63.159H79.9937V60.2549H84.9252V67.3782H79.9937V64.8028H78.3498V84.6385C78.3498 86.9045 80.1934 88.748 82.4594 88.748C83.5566 88.748 84.5885 88.3204 85.365 87.544C86.1414 86.7676 86.569 85.7357 86.569 84.6385V80.5837H84.9252V84.6385C84.9252 85.2966 84.6686 85.9157 84.2027 86.3817C83.7367 86.8477 83.1176 87.1042 82.4594 87.1042C81.0998 87.1042 79.9937 85.9981 79.9937 84.6385V69.022H84.9252V78.9398H86.569V60.2262C87.8078 60.0404 88.7608 58.9693 88.7608 57.6796ZM50.4594 34.8302C53.4097 34.8302 54.7312 36.035 55.117 36.4773V40.9497C54.1416 40.3404 52.6424 39.7617 50.4594 39.7617C48.2764 39.7617 46.7772 40.3404 45.8019 40.9497V36.4786C46.195 36.0283 47.5174 34.8302 50.4594 34.8302ZM50.4594 48.3097C48.4249 48.3097 47.0129 46.2794 45.8019 43.7023V43.0542C46.1938 42.6048 47.5149 41.4056 50.4594 41.4056C53.412 41.4056 54.7323 42.6114 55.117 43.0529V43.7025C53.906 46.2794 52.494 48.3097 50.4594 48.3097ZM50.4594 70.7754C52.6424 70.7754 54.1416 70.1968 55.117 69.5875V74.057C54.7281 74.495 53.3863 75.707 50.4594 75.707C47.5092 75.707 46.1877 74.5022 45.8019 74.0599V69.5875C46.7772 70.1968 48.2764 70.7754 50.4594 70.7754ZM50.4594 62.5563C47.5069 62.5563 46.1866 61.3505 45.8019 60.9089V59.2377C47.2096 57.8363 48.5492 56.5289 50.4594 56.5289C52.3697 56.5289 53.7093 57.8363 55.117 59.2378V60.9076C54.7251 61.357 53.404 62.5563 50.4594 62.5563ZM67.0074 43.2686C65.6477 43.2686 64.5416 42.1625 64.5416 40.8028C64.5416 39.4432 65.6477 38.3371 67.0074 38.3371C68.3671 38.3371 69.4731 39.4432 69.4731 40.8028C69.4731 42.1625 68.3671 43.2686 67.0074 43.2686ZM86.1855 58.6111H78.7334C78.2198 58.6111 77.8019 58.1932 77.8019 57.6796C77.8019 57.1659 78.2198 56.748 78.7334 56.748H86.1855C86.6991 56.748 87.117 57.1659 87.117 57.6796C87.117 58.1932 86.6991 58.6111 86.1855 58.6111Z" fill="white"/>
</svg>
