<svg width="33" height="31" viewBox="0 0 33 31" fill="none" xmlns="http://www.w3.org/2000/svg">
<g id="Vector">
<path d="M8.58721 13.5262C8.78916 8.1126 10.0468 2.87189 12.2774 0.105957C5.97103 1.6436 1.17011 6.97529 0.5 13.5262H8.58721Z" fill="white"/>
<path d="M16.4908 0.67461C15.1322 0.67461 12.5803 4.99638 12.2774 12.9575H20.7134C20.4105 4.99638 17.8494 0.67461 16.5 0.67461H16.4908Z" fill="white"/>
<path d="M32.5 13.5262C31.8207 6.97529 27.0198 1.6436 20.7134 0.105957C22.9532 2.87189 24.2017 8.1126 24.4036 13.5262H32.5Z" fill="white"/>
<path d="M8.59639 16.6857H0.509179C1.17929 23.2366 5.98021 28.5774 12.2866 30.106C10.0468 27.34 8.79834 22.0993 8.59639 16.6857Z" fill="white"/>
<path d="M12.2866 17.2544C12.5895 25.2155 15.1506 29.5373 16.5 29.5373C17.8494 29.5373 20.4105 25.2155 20.7134 17.2544H12.2866Z" fill="white"/>
<path d="M24.4036 16.6857C24.2017 22.0993 22.9441 27.34 20.7134 30.106C27.0198 28.5683 31.8207 23.2366 32.4908 16.6857H24.4036Z" fill="white"/>
</g>
</svg>
